<?xml version="1.0" encoding="utf-8"?>
<!-- Generator: Adobe Illustrator 25.1.0, SVG Export Plug-In . SVG Version: 6.00 Build 0)  -->
<svg version="1.1" id="Layer_1" xmlns="http://www.w3.org/2000/svg" xmlns:xlink="http://www.w3.org/1999/xlink" x="0px" y="0px"
	 viewBox="0 0 437 106.9" style="enable-background:new 0 0 437 106.9;" xml:space="preserve">
<style type="text/css">
	.st0{fill:#FFFFFF;}
</style>
<g>
	<g>
		<g>
			<path class="st0" d="M37.5,56.6v27.3c0,3,0.1,6.1,0.2,7.7h-7.9l-0.3-3.3h-0.1c-1.6,2.8-4.5,3.8-7.3,3.8
				c-5.6,0-10.3-4.9-10.3-12.5c-0.1-8.1,5.1-12.8,10.8-12.8c2.7,0,4.9,0.8,6,2.3h0.1V56.6H37.5z M28.6,77.8c0-0.3,0-0.7-0.1-1.1
				c-0.3-1.7-1.7-3.1-3.5-3.1c-3,0-4.3,2.7-4.3,5.9c0,3.7,1.8,5.7,4.3,5.7c1.8,0,3.2-1.3,3.4-2.9c0.1-0.5,0.1-1.1,0.1-1.6V77.8z"/>
			<path class="st0" d="M44.5,75.6c0-3.8-0.1-6.2-0.2-8.2h7.6l0.3,4.4h0.2c1.3-3.7,4.4-4.9,6.5-4.9c0.8,0,1.1,0,1.8,0.1v8.3
				c-0.6-0.1-1.3-0.2-2.3-0.2c-2.6,0-4.4,1.1-4.8,3.1c-0.1,0.4-0.1,0.9-0.1,1.5v12h-8.9V75.6z"/>
			<path class="st0" d="M81.4,75.6c0-3.2-0.1-6-0.2-8.2h7.6l0.4,3.1h0.2c0.9-1.3,3.2-3.6,7.2-3.6c5.7,0,8.7,3.8,8.7,10.5v14.3h-8.9
				V78.4c0-2.8-1-4.4-3.1-4.4c-1.7,0-2.5,1.2-2.9,2.1c-0.2,0.4-0.2,1.1-0.2,1.8v13.7h-8.9V75.6z"/>
			<path class="st0" d="M121,77.2h0.1c0.5-1.1,1-2.1,1.6-3l4-6.9h10.6l-8.4,9.8l9.6,14.5h-10.9l-4.8-9.3l-1.8,2.4v6.9h-8.9v-35h8.9
				V77.2z"/>
			<path class="st0" d="M163.9,85.7c0,2.4,0.1,4.7,0.4,5.9h-8l-0.5-2.1h-0.1c-1.7,1.9-4.1,2.7-6.7,2.7c-4.9,0-8-3.6-8-7.6
				c0-6.5,5.8-9.4,14-9.4v-0.2c0-1-0.7-2.1-3.9-2.1c-2.6,0-5.3,0.9-6.8,1.8l-1.6-5.7c1.6-0.8,5-2.2,10-2.2c8.3,0,11.2,4.6,11.2,10.7
				V85.7z M155.3,80.5c-3.6,0-5.7,1-5.7,3.2c0,1.5,1,2.3,2.5,2.3c1.3,0,2.7-0.9,3.1-2.2c0.1-0.4,0.1-0.8,0.1-1.3V80.5z"/>
			<path class="st0" d="M176.8,67.4l1.4,8.9c0.4,2.4,0.8,5.2,1.2,8h0.1c0.4-2.9,1.1-5.7,1.6-8l1.9-9h6.9l1.8,8.6
				c0.6,2.7,1.2,5.5,1.6,8.3h0.1c0.3-2.9,0.7-5.7,1.2-8.4l1.5-8.5h8.7l-7.2,24.2h-8.4l-1.7-7.2c-0.5-2.3-0.8-4.3-1.3-7.4h-0.1
				c-0.3,3.1-0.7,5.2-1.3,7.3l-1.8,7.3h-8.4l-6.9-24.2H176.8z"/>
			<path class="st0" d="M230.6,85.7c0,2.4,0.1,4.7,0.4,5.9h-8l-0.5-2.1h-0.1c-1.7,1.9-4.1,2.7-6.7,2.7c-4.9,0-8-3.6-8-7.6
				c0-6.5,5.8-9.4,14-9.4v-0.2c0-1-0.7-2.1-3.9-2.1c-2.6,0-5.3,0.9-6.8,1.8l-1.6-5.7c1.6-0.8,5-2.2,10-2.2c8.3,0,11.2,4.6,11.2,10.7
				V85.7z M222,80.5c-3.6,0-5.7,1-5.7,3.2c0,1.5,1,2.3,2.5,2.3c1.3,0,2.7-0.9,3-2.2c0.1-0.4,0.1-0.8,0.1-1.3V80.5z"/>
			<path class="st0" d="M237.5,75.6c0-3.8-0.1-6.2-0.2-8.2h7.6l0.3,4.4h0.2c1.3-3.7,4.4-4.9,6.5-4.9c0.8,0,1.1,0,1.8,0.1v8.3
				c-0.6-0.1-1.3-0.2-2.3-0.2c-2.6,0-4.4,1.1-4.8,3.1c-0.1,0.4-0.1,0.9-0.1,1.5v12h-8.9V75.6z"/>
			<path class="st0" d="M265.6,82.6c0.3,1.9,3.1,3,6.2,3c2.3,0,4.5-0.2,6.6-0.9l1.1,5.9c-2.9,1.2-6.1,1.6-9.1,1.6
				c-8.5,0-13.3-4.7-13.3-12.4c0-5.7,3.6-12.9,12.6-12.9c7.8,0,11.2,5.8,11.2,12.4c0,1.5-0.2,2.8-0.3,3.4H265.6z M272.7,76.6
				c0-1.4-0.6-3.9-3.4-3.9c-2.6,0-3.6,2.4-3.8,3.9H272.7z"/>
			<path class="st0" d="M290.6,92.1c-3,0-5-2.2-5-5.2c0-3.1,2.1-5.2,5.1-5.2c3,0,5,2.1,5.1,5.2C295.7,90,293.6,92.1,290.6,92.1
				L290.6,92.1z"/>
			<path class="st0" d="M319.6,91.1c-1.5,0.6-4,1-6.7,1c-8,0-13.1-4.7-13.1-12.5c0-6.9,4.7-12.9,14.2-12.9c1.8,0,3.9,0.2,5.6,0.8
				l-1.3,6.5c-0.8-0.3-2-0.6-3.8-0.6c-3.4,0-5.7,2.3-5.7,5.8c0,3.9,2.8,5.8,5.9,5.8c1.5,0,2.8-0.1,3.9-0.6L319.6,91.1z"/>
			<path class="st0" d="M348.9,79.2c0,8.8-6.3,12.9-13.1,12.9c-7.2,0-12.8-4.6-12.8-12.5c0-7.7,5.1-12.8,13.3-12.8
				C343.9,66.8,348.9,72,348.9,79.2z M332.1,79.5c0,3.6,1.2,6.4,3.9,6.4c2.4,0,3.7-2.5,3.7-6.4c0-3.3-1.1-6.4-3.7-6.4
				C333.1,73.1,332.1,76.3,332.1,79.5z"/>
			<path class="st0" d="M357.7,92.1c-3,0-5-2.2-5-5.2c0-3.1,2.1-5.2,5.1-5.2c3,0,5,2.1,5.1,5.2C362.8,90,360.7,92.1,357.7,92.1
				L357.7,92.1z"/>
			<path class="st0" d="M392,83.3c0,3.4,0.1,6.2,0.2,8.3h-7.6l-0.4-3.2H384c-0.9,1.3-3,3.7-7.3,3.7c-5.4,0-8.6-3.5-8.6-10.5V67.4
				h8.9v12.9c0,3.1,1,4.8,3.1,4.8c1.7,0,2.5-1.1,2.9-2.1c0.2-0.3,0.2-0.8,0.2-1.3V67.4h8.9V83.3z"/>
			<path class="st0" d="M408,77.2L408,77.2c0.6-1.1,1.1-2.1,1.7-3l4-6.9h10.6l-8.4,9.8l9.6,14.5h-10.9l-4.8-9.3l-1.8,2.4v6.9h-8.9
				v-35h8.9V77.2z"/>
			<g>
				<path class="st0" d="M65.6,91.6V67.4h8.8v24.2H65.6z"/>
			</g>
			<g>
				<path class="st0" d="M69.9,63.8c-2.9,0-5-2.2-5-5.2c0-3.1,2.1-5.2,5-5.2c2.9,0,5,2.1,5,5.2C75,61.7,72.9,63.8,69.9,63.8
					L69.9,63.8z"/>
			</g>
		</g>
		<g>
			<path class="st0" d="M14.4,44.7V29h-2.7v-4.7h2.7v-0.8c0-2.4,0.7-5.1,2.6-6.8c1.6-1.5,3.8-2,5.6-2c1.4,0,2.5,0.2,3.4,0.4L25.7,20
				c-0.5-0.2-1.2-0.3-2-0.3c-2.1,0-2.9,1.6-2.9,3.6v1h4.1V29h-4v15.7H14.4z"/>
			<path class="st0" d="M48.7,34.3c0,7.4-5.3,10.8-10.7,10.8c-5.9,0-10.5-3.9-10.5-10.5c0-6.6,4.3-10.8,10.8-10.8
				C44.6,23.9,48.7,28.2,48.7,34.3z M34,34.5c0,3.5,1.5,6.1,4.2,6.1c2.4,0,4-2.5,4-6.1c0-3-1.2-6.1-4-6.1C35.1,28.4,34,31.5,34,34.5
				z"/>
			<path class="st0" d="M53.7,31.1c0-3-0.1-4.9-0.2-6.7h5.4l0.2,3.7h0.2c1-2.9,3.5-4.2,5.5-4.2c0.6,0,0.9,0,1.3,0.1v6
				c-0.5-0.1-1-0.2-1.7-0.2c-2.3,0-3.9,1.2-4.3,3.2C60,33.4,60,33.9,60,34.4v10.3h-6.3V31.1z"/>
			<path class="st0" d="M87.4,18.9v5.5h4.5V29h-4.5v7.3c0,2.4,0.6,3.6,2.5,3.6c0.9,0,1.2,0,1.9-0.2l0,4.8c-0.8,0.3-2.3,0.6-4.1,0.6
				c-2,0-3.7-0.7-4.7-1.8c-1.2-1.2-1.7-3.2-1.7-6V29h-2.7v-4.7h2.7v-3.8L87.4,18.9z"/>
			<path class="st0" d="M96.9,15.2h6.3v11.6h0.1c0.7-0.9,1.5-1.6,2.5-2.1c1-0.5,2.1-0.8,3.3-0.8c4,0,7.1,2.8,7.1,8.9v11.9h-6.3V33.5
				c0-2.7-0.9-4.5-3.3-4.5c-1.7,0-2.7,1.1-3.2,2.2c-0.2,0.4-0.2,1-0.2,1.4v12h-6.3V15.2z"/>
			<path class="st0" d="M127.1,36.5c0.2,2.6,2.8,3.9,5.7,3.9c2.2,0,3.9-0.3,5.6-0.8l0.8,4.3c-2.1,0.8-4.6,1.3-7.3,1.3
				c-6.9,0-10.8-4-10.8-10.4c0-5.1,3.2-10.8,10.3-10.8c6.6,0,9,5.1,9,10.1c0,1.1-0.1,2-0.2,2.5H127.1z M134.5,32.2
				c0-1.5-0.7-4.1-3.6-4.1c-2.7,0-3.7,2.4-3.9,4.1H134.5z"/>
			<path class="st0" d="M155.8,44.7V29h-2.7v-4.7h2.7v-0.8c0-2.4,0.7-5.1,2.6-6.8c1.6-1.5,3.8-2,5.6-2c1.4,0,2.5,0.2,3.4,0.4
				l-0.2,4.9c-0.5-0.2-1.2-0.3-2-0.3c-2.1,0-2.9,1.6-2.9,3.6v1h4.1V29h-4v15.7H155.8z"/>
			<path class="st0" d="M187.5,39.7c0,2,0.1,3.8,0.3,4.9h-5.7l-0.4-2h-0.1c-1.3,1.6-3.4,2.5-5.8,2.5c-4.1,0-6.6-3-6.6-6.2
				c0-5.3,4.7-7.8,11.9-7.8v-0.3c0-1.1-0.6-2.6-3.7-2.6c-2.1,0-4.3,0.7-5.6,1.5l-1.2-4.1c1.4-0.8,4.2-1.8,7.9-1.8
				c6.8,0,8.9,4,8.9,8.8V39.7z M181.4,35.1c-3.3,0-5.9,0.7-5.9,3.2c0,1.6,1.1,2.4,2.5,2.4c1.6,0,2.9-1,3.3-2.3
				c0.1-0.3,0.1-0.7,0.1-1.1V35.1z"/>
			<path class="st0" d="M208.8,44.2c-1.1,0.5-3.2,1-5.6,1c-6.6,0-10.8-4-10.8-10.4c0-5.9,4.1-10.8,11.6-10.8c1.7,0,3.5,0.3,4.8,0.8
				l-1,4.7c-0.7-0.3-1.9-0.6-3.5-0.6c-3.3,0-5.5,2.4-5.4,5.7c0,3.7,2.5,5.7,5.6,5.7c1.5,0,2.7-0.2,3.6-0.7L208.8,44.2z"/>
			<path class="st0" d="M221.2,18.9v5.5h4.5V29h-4.5v7.3c0,2.4,0.6,3.6,2.5,3.6c0.9,0,1.2,0,1.9-0.2l0,4.8c-0.8,0.3-2.3,0.6-4.1,0.6
				c-2,0-3.7-0.7-4.7-1.8c-1.2-1.2-1.7-3.2-1.7-6V29h-2.7v-4.7h2.7v-3.8L221.2,18.9z"/>
			<path class="st0" d="M230.6,39.2c1.2,0.7,3.6,1.5,5.4,1.5c1.9,0,2.7-0.7,2.7-1.7c0-1-0.6-1.5-3-2.3c-4.2-1.4-5.8-3.7-5.8-6.1
				c0-3.8,3.2-6.7,8.3-6.7c2.4,0,4.5,0.5,5.7,1.2l-1.1,4.4c-0.9-0.5-2.7-1.2-4.4-1.2c-1.5,0-2.4,0.6-2.4,1.7c0,1,0.8,1.5,3.3,2.3
				c3.9,1.3,5.5,3.3,5.5,6.3c0,3.8-3,6.6-8.8,6.6c-2.7,0-5-0.6-6.6-1.5L230.6,39.2z"/>
		</g>
	</g>
</g>
</svg>
