<?xml version="1.0" encoding="utf-8"?>
<!-- Generator: Adobe Illustrator 25.1.0, SVG Export Plug-In . SVG Version: 6.00 Build 0)  -->
<svg version="1.1" id="Logo" xmlns="http://www.w3.org/2000/svg" xmlns:xlink="http://www.w3.org/1999/xlink" x="0px" y="0px"
	 viewBox="0 0 1067.4 150.7" style="enable-background:new 0 0 1067.4 150.7;" xml:space="preserve">
<style type="text/css">
	.st0{fill:#FFFFFF;}
</style>
<g>
	<path class="st0" d="M349,54.5h20.1v0.6l-6.9,6c-0.3,10.1-0.4,19.6-0.3,28.1c0,8.7,0.3,16.8,0.8,24.3h-8c0-0.4-0.2-1.1-0.8-1.7
		c-0.6-0.7-1.2-1.4-1.6-2l-34.6-43.6c0,13.4,0.2,26.7,0.6,40.5h0l7.6,5.6v0.8h-20v-0.8l6.9-5.6c0.6-11.8,0.6-27,0-45.8l-8.2-5.8
		v-0.6h17.4c0.8,1.4,2.2,3.5,4.3,6c2,2.7,4.5,5.9,7.7,9.6c3,3.6,6.5,8,10.4,12.9c3.9,4.9,8.2,10.3,13.1,16.6
		c0-7.3-0.1-14.1-0.1-20.5c-0.1-6.5-0.2-12.4-0.3-17.9l-7.9-6V54.5z M404,59.9l6.7-4.8v-0.6h-23.6v0.6l6.8,4.8
		c0.1,15.7,0.1,31.5,0,47.5l-7,4.9v0.7H411v-0.7l-7-4.9C403.7,92.1,403.7,76.4,404,59.9 M470.4,108c-8.3,0.4-16.3,0.4-23.9,0
		c-0.1-7.7-0.1-15.4,0-23c4.4-0.1,10.5-0.2,18.4-0.2l4.5,6.7h0.7V73.4h-0.7l-4.5,6.8c-10.4,0-16.6-0.1-18.5-0.2
		c-0.1-3.3-0.2-6.7-0.2-10c0-3.3,0-6.7,0.1-10.3c3.6-0.3,7.6-0.3,11.5-0.3c3.9,0,8,0.1,12.3,0.1l4.9,6.8h0.7V54.5h-45.8v0.6l6.7,4.8
		c0.2,13.6,0.2,29.4,0,47.5l-6.7,4.9v0.8h47v-13h-0.7L470.4,108z M268.1,55.1l7.8,6c0.1,5.5,0.2,11.4,0.2,17.9
		c0.1,6.4,0.1,13.2,0.1,20.5c-4.7-6.3-9-11.7-12.9-16.6c-4-4.9-7.5-9.3-10.6-12.9c-3-3.7-5.5-6.8-7.5-9.6c-2-2.5-3.5-4.6-4.3-6
		h-17.4v0.6l8.1,5.8c0.6,18.8,0.6,34,0,45.8l-6.8,5.6v0.8h20v-0.8l-7.6-5.6h0c-0.4-13.7-0.7-27.1-0.7-40.5l34.7,43.6
		c0.6,0.6,1,1.3,1.6,2c0.5,0.6,0.8,1.3,0.8,1.7h8c-0.6-7.5-0.8-15.6-0.8-24.3c-0.1-8.5,0-17.9,0.4-28.1l6.9-6v-0.6h-20V55.1z
		 M17.2,39.8l9,5.6l0.6,62.8c0,2.6,0,4.8-0.1,6.7c-0.1,1.8-0.3,3.7-0.6,5.3c-0.3,1.6-0.8,3.1-1.4,4.5c-0.7,1.3-1.6,2.7-2.7,4
		c-1.4,1.7-3.1,3-5,4c-2,1-4.1,1.4-6.4,1.4c0.2-0.2,0.5-0.6,0.6-1c0.2-0.3,0.3-0.7,0.5-1.1c0.1-0.4,0.2-1,0.2-1.6
		c0-0.5-0.1-1.2-0.4-1.8c-0.3-0.7-0.7-1.2-1.2-1.8c-0.6-0.5-1.1-0.9-1.8-1.2C7.8,125.2,7,125,6.3,125c-0.8,0-1.5,0.2-2.2,0.5
		c-0.7,0.3-1.3,0.7-1.8,1.2c-0.6,0.5-1,1.1-1.3,1.9c-0.3,0.7-0.6,1.5-0.6,2.3c0,1.3,0.4,2.4,0.9,3.3c0.6,1,1.4,1.7,2.4,2.3
		c1,0.5,2,1,3.1,1.3c1.2,0.3,2.3,0.5,3.3,0.5c2.3,0,4.5-0.4,6.6-1.1c2.1-0.8,4-1.7,5.8-3c1.8-1.3,3.5-2.8,5.1-4.6
		c1.5-1.9,2.9-3.8,4-6.1c1-1.9,1.9-3.7,2.7-5.4c0.8-1.7,1.6-3.4,2.1-5.7c0.6-2,1.1-4.2,1.4-6.5c0.3-2.4,0.4-5.1,0.4-8.1
		c-0.1-3.2-0.1-6.4-0.2-9.8c-0.1-3.4-0.1-7.2-0.2-11.4c-0.1-4.2-0.1-8.8-0.2-14c-0.1-5.3-0.1-11.3-0.1-18l7.5-4.8v-0.7H17.2V39.8z
		 M113.2,95.6c1.2-3.5,1.8-7.4,1.8-11.8c0-4-0.5-7.6-1.4-10.9c-1-3.3-2.3-6.1-4.1-8.6c-1.8-2.4-4-4.5-6.6-5.8
		c-2.6-1.4-5.5-2.1-8.8-2.1c-3.2,0-6.2,0.7-8.7,2.1c-2.5,1.3-4.7,3.4-6.5,5.8c-1.8,2.4-3.1,5.2-4.1,8.5c-0.9,3.4-1.4,7-1.4,10.9
		c0,4.3,0.6,8.1,1.7,11.5c1.1,3.4,2.7,6.3,4.7,8.7c1.9,2.3,4.2,4.1,6.8,5.5c2.6,1.1,5.2,1.8,8.1,1.8c2.7,0,5.2-0.7,7.6-1.7
		c2.4-1.4,4.6-3.1,6.5-5.4C110.6,101.8,112,99,113.2,95.6 M121.9,67.5c1.4,2.3,2.6,4.9,3.4,7.6c0.8,2.7,1.2,5.6,1.2,8.7
		c0,4.3-0.8,8.3-2.4,12.1c-1.7,3.8-3.8,7.1-6.8,10c-2.9,3-6.2,5.3-10,7c-3.9,2-8.1,2.4-12.6,2.4c-4.5,0-8.7-0.4-12.6-2.4
		c-3.9-1.7-7.3-4-10.3-6.9c-3-2.9-5.3-6.2-7-10c-1.7-3.8-2.5-7.9-2.5-12.2c0-4.4,0.8-8.6,2.5-12.4c1.7-3.9,3.9-7.2,6.9-10.1
		c2.9-3,6.4-5.2,10.3-6.8c4-1.7,8.3-2.5,13-2.5c2.7,0,5.2,0.3,7.8,1c2.6,0.7,5,1.7,7.3,3.1c2.3,1.3,4.5,3,6.4,5
		C118.7,63,120.5,65.1,121.9,67.5 M182.7,55.1l6.7,4.8v20c-10.5,0.1-20.8,0.1-31,0v-20l6.7-4.8v-0.6h-23.4v0.6l6.6,4.8v47.5
		l-6.6,4.9v0.7h23.4v-0.7l-6.7-4.9V84.6c10.2-0.1,20.5-0.1,31,0v22.8l-6.7,4.9v0.7h23.4v-0.7l-6.6-4.9c-0.2-14.9-0.2-30.6,0-47.5
		l6.6-4.8v-0.6h-23.4V55.1z M713.9,39.9c1.1,0.7,2.3,1.5,3.4,2.3c1.2,0.8,2.2,1.6,3.2,2.4c-2.1,7.7-4.2,14.6-5.9,20.9
		c-1.8,6.2-3.4,11.5-4.7,16.1c-1.3,4.5-2.4,8.2-3.2,11.2c-0.7,2.9-1.3,4.9-1.5,6L689,45.3c1.1-1.1,2.2-2.2,3.2-3.1
		c1.1-0.9,2.1-1.7,3.1-2.3v-0.7h-25.9V40l6.5,5c-1.8,5.6-3.4,10.9-4.9,16.1c-1.5,5-2.9,9.7-4.2,14.1c-1.3,4.4-2.5,8.5-3.6,12.3
		c-1.2,3.8-2.1,7.5-3.1,10.9l-15.3-53.4l6.3-5.2v-0.7h-24.9v0.7c1.1,0.9,2,1.6,2.7,2.2c0.7,0.6,1.3,1,1.8,1.5
		c0.5,0.4,0.9,0.8,1.1,1.1c0.3,0.4,0.6,0.7,0.6,1.2c0.8,2.5,1.9,6.1,3.5,10.7c1.5,4.8,3.2,10.2,5.2,16.1c2,6,4.2,12.5,6.4,19.5
		c2.2,7.1,4.5,14.3,6.7,22h8.2c-0.1-0.4-0.1-0.6-0.1-0.8c0-0.6,0.1-1.1,0.2-1.5c0.1-0.5,0.3-1,0.4-1.5c0.2-0.5,0.4-0.9,0.5-1.4
		c0.7-2.6,1.5-5.3,2.2-8.3c0.8-3,1.7-6.2,2.6-9.5c1-3.3,1.9-6.7,2.8-10.2c1-3.4,1.9-6.8,3-10.3c0.9-3.3,1.9-6.6,2.9-9.7
		c0.8-3.3,1.8-6.2,2.6-8.9l19.4,62h7.9c0.3-1.3,0.9-3.8,2-7.5c1.1-3.6,2.4-8.3,4.2-14.1c1.7-5.7,3.8-12.6,6.2-20.4
		c2.3-7.9,5-17,7.9-26.8c1.7-1.6,3-2.8,4.1-3.8c1-0.9,1.7-1.6,2.1-1.9v-0.6h-19.1V39.9z M771.2,87l-9.6-24.8l-9,24.8H771.2z
		 M790.4,106.5l6.7,5.9v0.7h-25.7v-0.7l7.5-5.7l-6.1-15.4c-6.8-0.1-14.2-0.1-22,0l-5.6,15.4l7.4,5.7v0.7h-19.8v-0.7l6.8-5.7
		L760,53.4h8.4L790.4,106.5z M986.1,108.2c-8.6,0.3-16.5,0.3-24,0c-0.1-7.7-0.1-15.4,0-23c4.3-0.1,10.4-0.2,18.5-0.2l4.5,6.7h0.7
		V73.5h-0.7l-4.5,6.8c-10.5,0-16.6-0.1-18.6-0.2c-0.1-3.3-0.2-6.6-0.2-10c-0.1-3.3,0-6.7,0.1-10.3c3.6-0.3,7.4-0.3,11.4-0.3
		c3.9,0,8.2,0.1,12.6,0.1l4.8,6.8h0.6V54.7h-45.9v0.6l6.6,4.8c0.2,13.6,0.2,29.4,0,47.5l-6.6,4.9v0.8h47.1v-13h-0.7L986.1,108.2z
		 M1035.8,83.5c5,0,8.8-1,11.5-3.3c2.7-2.1,4-5.3,4-9.4c0-1.6-0.3-3.1-0.9-4.5c-0.5-1.4-1.4-2.7-2.5-3.7c-1.1-1.1-2.4-2-4.1-2.7
		c-1.5-0.6-3.3-0.9-5.3-0.9h-1.5c-0.7,0-1.4,0-2.3,0.1c-0.9,0-1.8,0-2.7,0.1c-0.9,0-1.9,0.1-2.6,0.1l-0.1,24.1
		c0.4,0.1,0.9,0.1,1.6,0.1c0.5,0,1.2,0,1.9,0.1h1.7H1035.8 M1066.2,111.4c0.6,0.5,1,0.8,1.3,1v0.7h-13.3l-13.7-23.1
		c-0.6-0.9-1.2-1.6-2-2c-0.6-0.2-1.7-0.5-2.9-0.5h-2.5c-1.2,0-2.4,0.1-3.8,0.2l0.2,20.1l6.6,4.6v0.7H1012v-0.7l7-4.9V60.3l-6.6-5
		v-0.6h18.3h8.9c3.5,0,6.7,0.3,9.5,1.1c2.8,0.8,5.3,1.8,7.3,3.3c2,1.4,3.6,3.2,4.7,5.1c1.1,1.9,1.7,4,1.7,6.3c0,2.2-0.6,4.2-1.5,6
		c-1,1.8-2.3,3.3-4,4.7c-1.7,1.4-3.7,2.4-6,3.2c-2.3,0.8-4.9,1.2-7.7,1.3c2,0.2,3.6,0.8,5,1.6c1.3,1,2.4,2.3,3.4,4l9.2,14.3
		c0.3,0.5,0.8,1.1,1.4,1.8c0.5,0.7,1.1,1.6,1.7,2.3C1065,110.3,1065.6,110.9,1066.2,111.4 M898.5,79.3c5.1-4.8,9.4-8.9,13-12.2
		c3.6-3.2,6.2-5.6,8.1-7.2l8.9-4.6v-0.6h-19.7v0.6l3,4.5c-2,2.2-4.2,4.2-6.3,6.3c-2.1,2-4.2,4-6.3,5.9c-2,1.9-4,3.8-5.9,5.5
		c-1.9,1.7-3.7,3.4-5.5,4.7c6.8,6.8,14.5,15.2,23.5,25.6l-2.5,4.6v0.7h21.3v-0.7l-4.5-4.6C912.9,94.8,903.9,85.4,898.5,79.3
		 M887.8,60l6.8-4.8v-0.6h-23.8v0.6l6.7,4.8c0.1,15.8,0.1,31.5,0,47.5l-7,4.9v0.7h24.1v-0.7l-6.9-4.9
		C887.7,91.4,887.7,75.6,887.8,60 M849.6,107.9H838c-3.7,0-7-0.1-10-0.1c-0.2-16.1-0.2-31.9,0-47.8l7.4-4.7v-0.7H811v0.7l6.7,4.7
		c0.2,15.8,0.2,31.4,0,47.5l-6.7,4.9v0.7h44.9v-13.1H855L849.6,107.9z M521.3,93.1c-1.1-0.9-2-2.9-2-5.6c0-4.9,2.9-11.1,7.3-14.3
		c5.6-4.2,10.8-4.4,12.5-5c-3.4,0.1-5.3-2-5-3.3c0.1-0.4,1.2,0.7,3,0.8c2.5,0.1,4.3-0.7,7.3-2.7c0.9-0.6,1.2-0.2,1.1,0.6
		c1.7-2,3.2-4.8,3.5-7.8c0.9,1.5,3.5,2.3,5.2,2.6c1.2,0.3,5.7,1.2,6.5,1.2c-0.4-0.2-4.2-1.7-6-2.3c-1-0.4-1.9-0.7-2.5-1
		c-0.7-0.3-1.3-0.6-1.7-0.9c-0.1-0.1-0.2-0.2-0.4-0.3c-0.2-0.1-0.3-0.3-0.5-0.5c-1.4-1.4-4.4-5.9-6-9.3c-1.7-3.7-2.1-4.8-2.8-8.5
		c-0.1-0.7-0.2-1.3-0.2-1.9c0-0.7,0-1.4,0.1-2.2c0.1-0.5,0.3-0.9,0.4-1.2c0.2-0.3,0.3-0.4,0.4-0.6c0.5-0.6,0.9-0.9,1.2-1
		c0.2-0.1,0.4-0.1,0.4-0.1c0.4,0-0.7,1-1,2.9c-0.7,3.3,2.1,6,3.1,7c3.8,4.1,6,5.1,7.9,7.7c0.3,0.5,0,0.5-0.5,0.5c-0.1,0-0.1,0-0.2,0
		c-0.9-0.1-2.2-0.7-1.7-0.1c0.9,1.2,2,1.5,3.2,1.7c0.1,0,0.3,0.1,0.4,0.1c0.6,0.1,1,0.2,1.3,0.3c0.2,0.1,0.4,0.2,0.7,0.3
		c0.1,0.1,0.3,0.2,0.5,0.2c0.2,0.1,0.4,0.2,0.5,0.3c0.1,0.1,0.1,0.2-0.3,0.2c-0.2,0-0.4,0-0.7,0c-0.1,0-0.2,0-0.4,0
		c-0.5,0.1-1.1,0.1-1.6,0.1h0c-0.4,0-0.7,0-1.1,0c-0.4,0-0.9-0.1-1.2-0.2c-1.5-0.4-3.1-1.2-2-0.2c0.1,0.1,0.3,0.2,0.4,0.3
		c0.9,0.7,1.5,1.2,2.7,1.3h0c0.3,0,0.7,0,1.1-0.1c0.4-0.1,0.7-0.2,1.3-0.3c0.7-0.1,1.3-0.2,1.8-0.2c1.6-0.1,2.7,0,3.5,0.2
		c0.2,0,0.3,0,0.4,0c0.3-0.1,0.1-0.7-0.7-1c-0.3-0.1-0.7-0.3-1.1-0.3c-0.9-0.3-1.4-0.3-2-1c0,0-0.1-0.1-0.1-0.1c0,0-0.3-0.4-0.4-0.4
		c-0.2-0.2-0.4-0.3-0.7-0.4c-0.1,0-0.1-0.1-0.2-0.1c-0.1,0-0.1-0.1-0.2-0.1c-0.2-0.1-0.3-0.3-0.4-0.5c-0.1-0.2-0.2-0.5-0.2-0.7
		c-0.1-0.3-0.3-0.8-0.4-1.2c-1.5-2.5-2.5-5.2-4.6-7.6c-0.6-0.8-2.7-2.6-3.1-3.4c-0.4-0.7-0.7-2.3-0.3-2.4c0.9-0.1,3.4,4.7,3.9,5.1
		c0.2,0.2-0.2-1.4-0.5-2.4c-0.2-0.7-0.7-1.7-0.9-2c0,0-0.6-1.3-2-2.4c-0.5-0.4-1.3-0.8-1.6-1c-0.3-0.2,0.1-0.6,1.7,0.3
		c1.1,0.6,1.5,0.7,1.7,0.6c-1.5-1.6-2.7-1.7-3-1.8c-0.5-0.2,1.6-1.2,3.8-0.9c1.9,0.2,3.7,0.6,5.4,1c0.9,0.2,0.1-0.7-0.7-1.2
		c-1.2-0.8-2.8-1.3-2.9-1.5c-0.2-0.2,2-0.1,3.2,0c0.8,0.1,0.3-0.4-0.7-0.8c-0.9-0.3-1.9-0.3-1.6-0.5c0.2-0.2,1.2-0.6,1.5-1.8
		c0.3-1.2,0-1.5,0.2-1.7c0.2-0.2,1.6,1.4,4.1,4.4c2.5,3,4.7,6.6,6.4,10.2c3.1,6.9,3.6,13.4,3.6,13.4s0.1,0.3,0.4-0.2
		c1.3-2.1,2.3-7,2.8-10.1c0.2-1-0.2-2.2-0.7-2.9c0-0.1-0.1-0.1-0.1-0.2c-0.8-1-0.2-2.1-0.1-3.3c0.1-1.3-0.9-1.5-1.2-2.1
		c-0.6-1-0.4-1.3-0.4-1.3c0.2,0,0.8-0.1,2.1-0.2c1.4-0.1,2.6,0.5,3.1,0.9c0.6,0.5,1.4,2.3,3.2,2.1c0.9-0.1,2,0.3,2.8,1.2
		c0.6,0.7,0.7,0.7,1.3,1.1c-0.2,0.3-0.6,0.8-0.5,1.5c0,0.5,0.3,1,0.6,1.4c0.2,0.2,0.3,0.3,0.4,0c0-0.1,0-0.1,0-0.3
		c0-0.3,0-0.6,0-0.8c0.1-0.9,0.5-1,0.7-0.8c0.1,0.1,0.2,0.2,0.3,0.4c0.1,0.1,0.2,0.3,0.2,0.5c0.2,0.3,0.3,0.5,0.6,0.8
		c0.1,0.1,0.2,0.3,0.3,0.3c0.8,0.8,2.5,1.6,3.1,1.8c0.3,0.1,0.4,0,0.2-0.1c-1.9-1.3-2.3-1.6-2.8-2.2c-0.1-0.2-0.4-0.6-0.5-0.8
		c-0.2-0.3-0.3-0.7-0.6-1.2c0.2,0,0.5-0.1,0.7-0.3c0.2-0.2,0.2-0.3,0.1-0.3c-0.1-0.1-0.4-0.1-0.9-0.1c-0.2,0-0.3,0-0.5,0
		c0,0-0.1,0-0.1,0c-0.1,0-0.2,0-0.3-0.1c-0.1,0-0.1,0-0.2,0c0,0,0,0,0,0c-0.8-0.6-1.4-0.5-1.7-1.1c-0.4-0.6,0.4-0.2,0.9-0.6
		c0.5-0.3-0.6-1.7-1-1.1c-0.5,0.9-0.7-0.1-0.7-0.7c0.1-0.6,0-1.3-0.2-1.6c0,0,0-0.1,0-0.1c-0.1-0.2,0.3-0.4,0.5-0.5
		c0.2-0.1,0.2,0,0.3,0.1c0,0,0,0,0,0c0.1,0.1,0.3,0.4,0.7,0.6c0,0,0,0,0.1,0c0,0,0,0,0.1,0c0,0,0,0,0.1,0c0.1,0,0.2,0.1,0.4,0.1
		c0,0,0.1,0,0.1,0c0.2,0,0.4,0,0.6,0c0.1,0,0.2,0,0.4-0.1c0.1,0,0.2-0.1,0.3-0.1c0.2-0.1,0.3-0.2,0.4-0.3c0.1-0.1,0.2-0.4-0.1-0.5
		c-0.1,0-0.2,0-0.3,0c-0.4,0-0.8,0-0.8,0c-0.1,0-0.1,0-0.1,0c-0.1,0-0.2-0.1-0.3-0.1c-0.1-0.1-0.1-0.2-0.2-0.4
		c-0.1-0.1-0.2-0.3-0.3-0.3c-0.4-0.4-1.2-0.8-1.8-1.1c-0.6-0.3-1.6-0.9-2-1.2c-0.4-0.4-0.5-0.6-0.7-1.1c-0.2-0.5-0.4-1.1-0.7-1.5
		c-0.3-0.4-0.7-0.8-0.4-0.9c0.4-0.3,1.1,0,1.4,0.4c0.1,0.2,0.3,0.4,0.4,0.6c0,0,0.1,0,0.1,0c0.1-0.1,0-0.9,0-1.1
		c0-0.6,0.5-1.3,0.5-1.3c0,0,0,0,0,0c0.1,0,0,0.4-0.1,0.7c0,0.1-0.1,0.2-0.1,0.4l0,0c0,0,0,0.1,0,0.1c0,0.1,0,0.3,0,0.4
		c0.1,0.7,0.3,1.8,0.3,2c0,0.2,0.2,0.4,0.5,0.4c0.3-0.1,0.7-0.6,0.7-0.6s0,0.2,0.3,0.2c0.1,0,0.2,0,0.3-0.1c0.2-0.2,0.2-0.4,0.3-0.6
		c0-0.1,0-0.2,0-0.3c0-0.1,0.1-0.1,0.2-0.2c0-0.1,0.1-0.2,0.1-0.3c0.1-0.3,0.1-0.4,0-0.5c0-0.1-0.1-0.1-0.1-0.2
		c-0.3-0.3-0.5-0.1-0.5-0.1s0.1-0.5,0-0.8c-0.1-0.4-0.6-0.2-0.6-0.2s0.1-0.3,0-0.7c-0.1-0.4-0.2-0.6-0.5-0.6c-0.1,0-0.2,0-0.3,0.1
		c0,0,0-0.1,0-0.1c0.2-0.3,1.8-0.3,2.1-0.2c0.3,0,0.6,0.1,0.8,0.6c0.1,0.2,0.2,0.5,0.3,0.6c-0.3,0-0.7,0-0.8,0
		c-0.2,0,0.1,0.2,0.7,0.2c0.1,0,0.2,0,0.4,0c0.2,0,0.5,0.3,0.6,0.6c0.2,0.4,0.2,1.1,0.7,2.3c0.2,0.4,0.4,0.8,0.6,1.1c0,0,0,0,0,0
		c0.3,0.4,0.4,0.5,0.5,0.8l0,0c0,0,0,0,0,0c0,0.1,0.1,0.3,0.2,0.6c0.1,0.4,0.2,0.5,0.4,0.6c0.1,0,0.2,0.1,0.3,0.1
		c0.1,0,0.3,0.1,0.3,0.3c0,0,0,0,0,0c0,0,0,0,0,0c0,0.1,0,0.1,0,0.2c0.1,0.2,0.2,0.3,0.4,0.3c0.1,0,0.2-0.1,0.4-0.1
		c0.9,0.1,0.9,0.7,1,1.4c0,0.1,0.1,0.2,0.1,0.4c0.2,0.7,1,2.1,2.1,3.4c2,2.3,4.3,5.8,4,7.3c-0.1,0.9-1.9,1.8-2.7,2.1
		c-0.8,0.3-5.4,0.6-10.5-0.2c-5.6-0.8-7.6-1.5-8.2-1.6c-0.3,2.3-1,5.6-1.4,7.4c-0.5,2-1.5,5.1-1.8,6.5c-0.1,0-0.2-0.1-0.4-0.1
		c-0.2-0.1-0.2-0.1-0.5-0.2c-0.3-0.1-0.8-0.3-1.3-0.4c-0.9-0.3-1.8-0.4-2.3-0.5c-1.2-0.2-2.5-0.2-3.6-0.2c-0.9,0-1.8,0.2-2.2,0.3
		c-1.2,0.3-0.8,0.8,1.3,1c1.3,0.1,2.4,0,3.6-0.1c0.5,0,1-0.1,1.5,0c0.8,0,1.3,0.1,2.1,0.3c0.3,0.1,1.5,0.5,1.5,0.5
		c0.1,0,0.5,0.1,0.5,0.1c1.4,0.4,1.9,0.5,3.1,0.8c0.4,0.1,0.7,0.1,1,0.2c0.3,0,0.5,0.1,0.8,0.1c0.6,0.1,1.1,0.1,1.6,0.1
		c0.6,0,1.1,0,1.4,0c0.2,0,0.3,0,0.3,0c0.1,0.1,0.1,0.2,0,0.3c-0.2,0.2-0.3,0.2-0.4,0.3c-0.2,0.1-0.4,0.2-0.6,0.3
		c-0.2,0.1-0.4,0.2-0.7,0.4c-0.4,0.2-1,0.6-1.3,0.8c-0.8,0.7-1.7,2.1-1.4,3.6c0.2,1.5,1.5,1.1,1.2,1.8c-0.1,0.2-0.4,0.8-1.1,0.7
		c-0.4-0.1-0.9-0.1-1.7-0.4c0,0,0,0,0,0c0.1-0.5,0.5-0.8-0.3-1.4c-0.5-0.4-1.8-0.5-1.1,0.5c0.2,0.2,0.3,0.4,0.5,0.6
		c0,0,0.1,0.1,0,0.1c0,0,0,0-0.1,0c-0.1,0-0.2-0.1-0.2-0.1c-1.5-0.6-1.6-0.4-2-1c-0.1-0.2-0.2-0.3-0.3-0.6c-0.1-0.2-0.1-0.3-0.2-0.5
		c-0.1-0.2-0.3-0.3-0.5-0.2c-0.1,0-0.2,0.2-0.4,0.3c-0.4,0.4-0.9,0.2-1.3,0.1c-0.1,0-0.2-0.1-0.3-0.1c0.1,0.1,1.4,0.7,2.4,1.1
		c-0.2,1.3-0.6,4-1,4.3c-0.7,0.6-2.1-2.4-2.5-3.3c0,0,0-0.1-0.1-0.1c0,0.1-0.1,0.2-0.1,0.3c-0.1,0.1-0.2,0.3-0.3,0.5
		c-0.7,1.1-1.8,2.1-1.8,2.1s-1.2-0.2-3.1-0.2c-6.1,0-13,3.9-15.6,4.8c-0.6,0.2-1,0.4-1,0.4c0.3,0.1,2.9-0.4,4.9-1.1
		c1.2-0.4,1.7-0.6,4.1-1.4c0.2-0.1,0.5-0.2,0.6-0.2c-0.1,0.1-0.3,0.3-0.4,0.5c-1.3,1.5-2.1,2.9-5.4,5.1c-1.6,1-3.4,1.9-5.8,2.7
		c-0.3,0.1-0.6,0.2-0.8,0.3c-7.4,2.2-11.3,2-15,4.1c-2.3,1.3-3.4,3.3-3.1,5.2c0.1-0.4,0.2-2.3,2.5-3.8c2.8-1.8,6.3-2.4,7.2-2.5
		c-3.3,2.3-9.4,6.8-8.9,12.6C521.5,93.2,521.5,93.3,521.3,93.1 M564,48.2c-0.4,0.1-0.6,0.6-0.5,1c0.1,0.5,0.5,0.7,0.9,0.6
		c0.4-0.1,0.6-0.6,0.5-1C564.8,48.3,564.4,48.1,564,48.2 M562.9,44.8c0.4-0.1,0.6-0.5,0.5-1c-0.1-0.5-0.5-0.7-0.9-0.6
		c-0.4,0.1-0.6,0.6-0.5,1C562.1,44.7,562.5,45,562.9,44.8 M554.7,33.2c-0.1,0.3,3.3,2.5,6.3,5.5c1,1,1.8,2.1,2.1,2.4
		c0,0,0.8,0.9-0.1-0.8c-0.2-0.5-1-1.6-2.7-3.3c-1.9-2-3.4-3.2-3.6-3.5c-0.2-0.4,1.2-1.6,0.9-1.7C557.4,31.7,554.8,32.9,554.7,33.2
		 M561.3,23.9c0,0-0.5-0.5-0.6-0.5c-0.1,0-1.8,1-0.9,0.9h0c0.4-0.1,0.9-0.2,1.2-0.2C561.2,24.1,561.4,24.1,561.3,23.9 M569,37
		c0.1-0.9-1.4-0.8-1.2-0.2c0.2,0.6,0.3,0.8,0.3,0.8S568.9,37.8,569,37 M554.2,9.3c0,1.4,2,2,3.1,2.1c0.3,0,0.8,0,1,0.1
		c0.1,0.3-0.2,0.8-1.4,0.6c-0.7-0.1-1.5,0.2-1.6,1.4c-0.1,1.4,0.5,2.4,0.4,3.1c-0.1,0.5-0.4,0.5-0.6,0.6c-0.2,0-0.3,0-0.4,0.1
		c-0.2,0.1,0.1,0.7,0.5,0.8c0.2,0.1,0.4,0.1,0.6,0.1c0.4,0,0.6-0.2,1-0.2c0.2,0,0.5,0.1,0.8,0.2c0.5,0.2,0.9,0.5,1.1,0.8
		c0.3,0.3,0.4,0.8,0.6,0.9c0.3,0.1,0.7-0.6,0.6-0.7c0,0-0.6,0-0.8-0.3c-0.2-0.3-0.1-0.8-0.3-1.3c-0.2-0.5-0.4-0.8-0.4-1.3
		c0-0.6,0.5-1.6,1.5-1.4c0.5,0.1,0.6,0.6,0.7,1.2c-0.1-0.1-0.2-0.2-0.3-0.2c-0.1,0-0.3,0-0.4,0.1c-0.1,0.1,0.2,0.2,0.3,0.3
		c0.2,0.1,0.3,0.3,0.4,0.6c0.1,0.2,0.2,0.4,0.2,0.6c0,0.2,0,0.3,0.1,0.5c0.1,0.5,0.1,0.6,0.2,0.7c0.1,0.1,1.1,0.9,1.4,0.8
		c0.3,0,0.4-0.1,0.3-0.1c-0.1-0.1-0.5-0.7-0.3-2.2c0.1-0.3,0.2-0.7,0.3-1c0.1-0.2,0.3-0.2,0.6-0.2c0,0,0.4,0,0.7,0.2
		c0.1,0.1,0.2,0.1,0.4,0.2c0.2,0.1,0.3,0.2,0.3,0.3c0,0.1,0,0.1-0.1,0.1c0,0-0.1,0.2,0,0.2c0,0,0.2,0.2,0.3,0.3c0,0,0.1,0.1,0.1,0.1
		c0,0.1,0.1,0.2,0.1,0.2c0,0.2,0.1,0.2,0.3,0.4c0.2,0.1,0.7,0.2,1.7,0.2c0.1,0,0.1,0,0.2,0c0.2,0,0.8,0.1,1,0.2
		c0.2,0.2,0.1,0.8,0.1,1.7c0,0.9-0.1,1.1-0.1,1.3c-0.1,0.2-0.3,0.4-0.5,0.3c-0.3,0-0.4,0-0.6,0c-0.2,0-0.3,0.4-0.4,0.7
		c0,0.1-0.2,0.3-0.2,0.4c-0.1,0.1-0.2,0.1-0.2,0.2c-0.1,0.1-0.2,0.3-0.2,0.6c0,0.3-0.1,0.4-0.1,0.4s-0.1,0.1-0.2,0.2
		c-0.3,0.3-0.3,0.7-0.3,1c0,0.4-0.2,0.7-0.4,0.9c-0.4,0.3-1.1,0.3-1.7-0.1c-0.3-0.2-0.5-0.3-0.8-0.5c-0.1,0-0.1-0.1-0.1,0
		c-0.1,0,0.1,0.2,0.4,0.6c0.2,0.2,0.4,0.4,0.5,0.5c1.5,1,2.9,0.9,3.1,0c0.2-0.6,0.9-1.2,1.7-2.5c0.9-1.3,1.5-1.4,2.1-2.9
		c0.3-0.7,0.3-1.5,0.4-2.4c-0.7-0.2-1.2-0.6-2-1.2c-0.4-0.3-0.9-0.9-1.2-1.3c-1-1.3-0.9-1.5-2.1-2.7c-0.4-0.4-1-0.8-1.3-1
		c-0.2-0.1-0.3-0.3-0.2-0.3c0.1,0,0.2,0,0.6,0.1c2.2,0.8,3.3,2.2,3.7,2.6c0.6,0.8,0.8,1.4,1.4,2.1c0.3,0.4,0.8,1,1.6,1.3
		c1.7,0.7,3.4,0.7,4,0.5c0.9-0.3,1.2-0.6,1.2-0.8c0.1,0.1,0.2,0.2,0.3,0.3c0.1,0.1,0.3,0.2,0.4,0.4c0.1,0,0.1,0.1,0.2,0.1
		c0.2,0.1,0.4,0,0.5,0.1c0,0.1,0,0.2-0.1,0.3c0,0,0,0.1,0.1,0.2c0.1,0.2,0.7,0.2,0.7,0.2s0.8,0.1,0.8,0c0,0,0.1-0.2-0.6-1.2
		c-0.2-0.2-1.8-1.4-2.1-1.6c-0.3-0.2-0.6,0-0.6,0.4c0,0.2,0.1,0.4,0.2,0.6c-0.3-0.2-0.9-0.5-1.4-0.6c-1.4-0.3-1.5-0.4-2.3-1
		c-0.1-0.1-0.1-0.2-0.1-0.2s1.5-2.5,2.6-3.6c1.1-1.1,2.2-1.8,2.4-2.5c0.2-0.7-1-4.6-5.3-7c-4.3-2.4-7.5-2.4-8.6-2.1
		c-1.1,0.3-1.3,0.9-1.3,1.5c0,0.7-0.1,2.1-0.4,3.3c-0.3,1.2-0.4,1.5-0.4,1.9c0,0.2,0.2,0.5,0.4,0.7c0.2,0.3,2.3,2,2.7,2.7
		c0.4,0.6-0.3,0.4-0.7,0.1c-0.4-0.3-1.7-1.1-3-1.6c-0.4-0.2-2.1-0.9-3.9-0.9C555.7,7.8,554.2,8.3,554.2,9.3 M566.2,28.5
		c0,0.2-0.1,0.1-0.2,0c-0.1-0.1-0.3-0.3-0.5-0.3c-0.4-0.1-0.7,0.4-1.2-0.1c-1-1.1-2.2-1.8-2.4-1.2c-0.1,0.6-0.1,0.8,0,1.4
		c0.2,1.2,0.5,2.3,0.5,2.3s0.1,0.4,0.7,0.2c0.5-0.2,1.1-0.4,1.2-0.4c0.1,0,0.3,0.2,0.5,0.4c0.4,0.3,0.8,0.3,1,0.2
		c0.2-0.1,0.5-0.4,0.5-0.3c0.6,0.3,1.9,1.3,1.5,0.3c-0.1-0.2-0.7-1.6,0.1-2.8c0.2-0.3,0.3-0.6,0.1-0.7c-0.1,0-0.7,0.1-1,0.2
		c-0.3,0.1-0.7,0.4-0.8,0.6C566.1,28.2,566.1,28.3,566.2,28.5 M568.8,40.6c0,0,0.8-0.2,0.9-1c0.1-0.8-1.2-0.5-1,0
		C568.9,40.1,568.8,40.6,568.8,40.6 M578.2,22.5c0,0.1,0.2-0.1,0.3-0.4c0.1-0.3,0.2-0.6,0.1-0.6c0,0-0.1,0-0.3,0.3
		C578.1,21.9,578.1,22.3,578.2,22.5 M563.3,21.5c0.1,0,0.1-0.2,0.4-0.4c0.3-0.2,0.7-0.3,0.5-0.3c0,0-0.5-0.1-0.8,0.1
		C563.2,21,563.2,21.5,563.3,21.5 M532.5,118.2c0.8,0.1,0.5,0.2,0.3,0.6c-0.3,0.3-1.1,1.2-2.5,2.9c-1,1.3-5.4,7-6.7,10
		c-0.8,2-0.9,2.8-1,3.3c0,0.1,0,0.1,0,0.2c0,0.1,0,0,0,0c-0.1-0.1-0.2-0.2-0.3-0.2c-0.5-0.2-0.8,0-0.9,0.1c-0.4,0.2-0.2,0.5,0.3,0.6
		c0.5,0.1,0.4,0.7,0.9,0.4c0.2-0.1,0.3-0.2,0.3-0.4c0,0,0-0.1,0,0c0.1,0.2,0.2,0.3,0.3,0.5c0.1,0.4-0.1,0.9-0.6,1c0,0-0.1,0-0.1,0
		c-0.1,1.4,0.1,2.6,0.7,4.7c0.5,1.9,1.8,3.5,1.8,3.5s2.1,1.2,2.7,1.9c0.8,1,0.2,1.9,0.2,1.9s0.5,0.2,0.1,0.9
		c-0.1,0.2-0.6,0.4-1.7,0.4c-1.1,0-3.3-0.1-5.6-1c-2.1-0.9-2.9-1.5-3.8-3.5c-0.9-2-1.7-4.1-1.7-4.1l-1.4,0c0,0-0.6-0.9-1-2
		c-0.6-1.7,0-3.1,0-3.1l0.1-0.2c0,0-0.2-0.9,0.4-2.2c0,0,0-0.1,0.1,0c0.1,0.5,0.7,0.8,1,0.5c0.4-0.5,0.8-0.9,1.1-1.1
		c0.6-0.4,0.5-0.6,0.3-0.8c-0.1-0.1-0.6-0.3-1.1-0.2c-0.1,0,0,0,0-0.1c0.2-0.2,0.4-0.4,0.5-0.5c0.2-0.2,0.4-0.7,0.6-1.1
		c0.2-0.6,0.5-1.6,0.8-2.9c0.4-1.9,1.5-5.7,2.1-7.4c0.8-2.2,2.2-4.5,3-5.5c0.2-0.3,0.2,0.1,0.3,0.4c0.1,0.3,0.3,0.4,0.4,0.4
		c0.1,0.1,0.7,0.5,0.6,0.7c-0.4,0.8-1.1,1.4-2.1,3.6c-0.5,1.1-2.7,6.1-3,9.1c-0.3,3,0.2,1.3,0.5,0.2c0.3-1.1,1.5-4.3,2.2-6
		c0.7-1.7,2.9-5.3,3.2-6c0.3-0.6,0.5-0.4,0.8-0.3c0.3,0.1,1.5,0.5,2.8,0.8C529.3,118.5,532.5,118.2,532.5,118.2 M517.8,143.8
		c0.5-0.6,0.3-1.5-0.4-2.4c-0.7-0.9-1.4-1.3-1.4-2c-0.1-0.7,0-1.6-0.5-1.1c0,0-0.2,0.1-0.2,1.1c0,1,1,2,1.3,2.7
		C516.8,142.8,517.3,144.4,517.8,143.8 M522,146.6c0,0-0.3-0.6-0.8-0.6c-0.5,0-1.2,0.4-0.7,0.8c0.5,0.4,1.4,0.5,1.9,0.8
		c0.4,0.2,0.7,0.3,1,0.3c0.1,0,0.2,0,0.2-0.1c0.1,0,0.1-0.1,0-0.1c-0.2-0.1-0.5-0.1-0.8-0.3C522.4,147.2,522.2,146.8,522,146.6
		 M520.3,145.6c0.9,0,1.5-0.4,0.7-0.6c-0.1,0-1-0.2-1.5,0.3c-0.5,0.5-0.4,0.8-0.2,0.8C519.7,146,519.7,145.6,520.3,145.6
		 M578.7,63.8c0.7-0.1,1.5-0.2,1.8-0.4c0.6-0.4,0.9-0.5,1.3-0.7c0.3-0.2,0.6-0.6,0.5-0.9c0-0.3,0.1-0.4,0.5-0.5
		c0.4-0.2,0.5-0.3,0.6-0.6c0.1-0.3,0.2-0.6,0.2-0.6s0.1-0.2,0.6-0.3c0.5-0.1,1.1-0.3,1.1-0.9c0-0.4-0.2-0.9-0.2-1c0,0,0,0,0,0
		c-0.1,0.2-0.5,0.5-1,0.2c-0.7-0.3-1.2-0.6-1.5-0.7c-0.4-0.2-0.9-0.2-0.7,0.2c0.2,0.4,0.3,0.6,0,0.9c-0.1,0.1-0.3,0.2-0.4,0.3
		c-0.5,0.2-0.7,0.6-0.6,0.8c0.1,0.2,0.1,0.5-0.2,0.7c-0.3,0.2-0.6,0.5-0.6,0.8c0,0.3-0.1,0.5-0.4,0.7c-0.3,0.2-0.7,0.3-2,0.4
		c-1.2,0.1-1.5-0.2-2-0.3c-0.5-0.2-0.8,0.1-0.8,0.4c0,0.3,0,0.4,0.4,0.5c0.3,0,0.4,0.3-0.1,0.4c-0.4,0.1,0.4,0.6,0.9,0.7
		c0.1,0,0.1,0,0.2,0c-2,4.2-26.2,52-26.3,52.4c-0.1,0.1,0,0.3,0.1,0.3c0.1,0.1,0.3,0.1,0.4,0C550.7,116.4,578.7,63.8,578.7,63.8
		 M580.4,56.1c-0.1,0.3,0.8-0.4,1.6-0.4c0.4,0,0.9,0.2,0.9,0.2l0.4-0.8c1.2-0.1,2.1-1,2.1-2.2c0-1.2-1-2.2-2.2-2.2
		c-0.5,0-1,0.2-1.3,0.4c0,0-0.1,0.1,0.1,0c0.2-0.1,0.5-0.1,0.6,0l0,0c0.2,0.2-0.3,0.3-0.3,0.8c0,0.2,0,0.3-0.2,0.4
		c-0.2,0.1-0.4,0-0.5-0.1c-0.1-0.1-0.2-0.3-0.2-0.4c0-0.1,0-0.1-0.1,0c-0.2,0.3-0.3,0.7-0.3,1.2c0,0.4,0.1,0.8,0.3,1.2
		C580.9,54.8,580.5,55.9,580.4,56.1 M602.3,136.4c0.1,0,0.8,0.3,0.7,0.7c-0.3,1.6-2.8,5.1-4.8,6.2c-2,1.1-5,1.5-6.5,2
		c-0.2,0.1-0.9,0.4-0.9,0.4l0.3,1.5c0,0-0.6,0.6-2,1.3c-1.4,0.7-2.3,0.9-2.3,0.9l-1.3-1.4c0,0-1.5-1.2-2.2-2.7
		c-0.2-0.3-0.3-0.6-0.4-0.9c-0.1-0.2-0.1-0.4-0.2-0.6c-0.3-0.9-0.3-1.3-0.4-1.6c-0.1-0.3-0.6-0.5-0.7-1c-0.1-0.2-0.1-0.4,0-0.7
		c0-0.1,0.1-0.3,0.2-0.4c0.3-0.8-0.3-0.8-0.5-0.9c-0.1-0.1-0.2-0.1-0.3-0.2c-0.3-0.3-0.3-0.9-0.3-1.2c-0.2-0.3-0.4-0.6-0.7-1
		c-0.1-0.2-0.3-0.4-0.5-0.6c-1.5-1.8-2.7-3.1-5.2-6.8c-2.4-3.7-3.1-6.4-3.1-6.4s0.7-0.4,1-0.6c0.3-0.1,0.6,0,0.9,0.5
		c0.1,0.1,0.1,0.3,0.2,0.5c0,0.1,0,0.1,0,0.2c0.1,0.6,0.5,1.8,1,2.9c0.5,1.3,1.2,2.9,1.9,3.8c1.2,1.7,3.4,4.3,4.9,5.8
		c0.8,0.8-0.9-1.7-2.3-3.9c-2.3-3.6-3.5-7-4.1-8.8c0-0.1-0.1-0.2-0.1-0.2c-0.1-0.3-0.3-0.6-0.4-0.8c-0.1-0.1-0.2-0.2-0.3-0.3
		c-0.2-0.1-0.4-0.1-0.3-0.3c0.1-0.1,0.7-0.4,1.7-1.1c1.2-0.9,1.5-2.5,2.2-4.1c0.3-0.6,0.6-1.2,0.8-1.6c-0.1-1,0.1-2.3,0.3-2
		c0,0.1,0.2,0.7,0.3,1l0,0c0,0,0,0.1,0,0.2c0.1,0.3,0.2,0.6,0.2,0.6v0c0.4,1.7,1.6,6.1,3.4,10.9c1.7,4.5,3.4,8.2,4.3,9.7
		c0.2,0.3,0.5,0.6,0.7,0.9c0.3,0,0.7,0.1,0.9,0.2c0.3,0.2,0.3,0.5,0.3,0.7c0.5,0.3,1,0.5,1.5,0.6c2.6,0.6,4.7,1,6.5,0.5
		c0.2-0.1,0.4-0.1,0.6-0.2c0.1,0,0.1,0,0,0c-0.2,0.1-0.3,0.3-0.5,0.4c-1.3,1.2-2.8,1-3.1,1c-0.1,0,0,0,0,0.1
		c0.9,0.8,2.9,0.2,3.5-0.3c0.6-0.5,0.4-0.4,1.1-0.1c0.2,0.1,0.3,0.1,0.4,0c0.2-0.1,0.2-0.9,0.4-1.6c0.1-0.6,0.4-1,0.6-1.2
		c1.2-0.6,2.1,0.1,2.1,0.1S602,136.4,602.3,136.4 M584.4,144.3c0.2-0.1-0.2-0.3-0.2-1.6c0,0,0.2-0.8-0.3-1c-0.4-0.3-1.2,0.1-1.1,0.5
		c0.1,0.4,0.2,1,0.3,1.3C583.5,144.4,584.2,144.4,584.4,144.3 M591.4,144.1c0.5-0.2,0.5-0.5,0.4-0.5c-0.3,0.1-1,0.4-1.8,0.4
		c-0.9,0-2.4,0.1-2.8,0.5c-0.4,0.4-0.9,1.7,0.2,1.1c1-0.6,1-0.7,2.1-1C589.9,144.5,590.9,144.3,591.4,144.1 M573.1,119.3
		c1.6-1.1,2.1-3,2.6-4.4c0.8-2.2,1.7-3.2,1.9-3.6c0.2-0.2-0.2-1.2-0.4-1.6c0-0.1-0.1-0.1-0.1-0.2c0,0-0.3,0-0.3,0
		c-0.1,0-0.3,0-0.4-0.1c0.2-0.6,0.3-1.1,0.3-1.6c0.1-0.5,0-1.7-0.3-2.8c-0.2-0.7-0.4-0.9-0.6-1c-0.2-0.1,0,0.3,0.1,1.1
		c0,0.8-0.1,1.9-0.5,2.7c-0.5,0.9-1,1.8-1.2,2.3c-0.2,0.5-0.1,1,0.3,1.1l0,0c0.1,0,0.3,0,0.3,0.4c0.1,0.5,0,1.5-1.8,3.5
		c-0.5,0.6-1.4,1.4-2.4,2.1c0,0.2,0.1,0.5,0,0.9c0,0.5-0.3,1.1-0.4,1.2c-0.1,0.1-0.2,0.1-0.3,0.2c-0.9,0.5,0,1.7,0,1.7
		S570.9,120.7,573.1,119.3 M552,94c2-3.4,3.6-6,5.2-7.6c0.9-0.9,2-2,2.5-2.3c0.8-0.5-0.3-0.5-2.8,1.2c-0.9,0.6-1.8,1.4-3,3
		c-2.3,3.1-4.4,7.6-5.3,9.3c-0.7,1.5-1.8,3.4-3.2,4.6c-1.5,1.3-3.1,1.8-4,2.6c-0.1,0.1-0.2,0.2-0.3,0.3c-0.1,0.1-0.2,0.2-0.3,0.3
		c-0.1,0.1-0.2,0.5-0.2,0.8c0.1,0.4,0.1,0.9-0.3,1.3c-0.2,0.2-0.7,0.5-1.8,0.9c-0.1,0-0.2,0-0.2,0.1c-0.2,0-0.7,0.2-0.8,0.2
		c-0.7,0.1-1.1,0.4-0.5,0.7c0.2,0.1,0.3,0.2,0.7,0.3c0.5,0.1,0.7,0.2,0.7,0.5c0,0.3-0.4,0.9-1.8,1.3c-2.2,0.7-5.3,0.6-5.3,0.6
		c-1.5-0.1-2.3-0.1-2.5,0c-0.2,0.1-0.2,0.4,0.8,0.7c0.5,0.1,1.8,0.4,2.4,0.6c0.4,0.1,0.3,0.4-0.2,0.5c-0.7,0.1-2.9,0.1-4.1-0.3
		c0,0-0.5-0.2-0.7-0.3c-0.7-0.4-1.2-0.9-1.4-1.2c-0.1-0.2-0.2-0.7-0.4-0.8l-1,1.4c0,0-0.1,0.4,0.6,1.4c0.1-0.1,0.1-0.4,0.2-0.5
		c0.1-0.2,0.4-0.4,0.7-0.1c0.2,0.2,0.1,0.7,0,0.9c-0.1,0.1-0.1,0.2-0.1,0.4c0,0,0,0.1,0,0.1c0.5,0.4,1.3,0.8,2.4,1
		c3,0.5,4.9,0,5.4-0.1c0.2,0,0.9-0.2,0.9,0c0,0.2-0.1,0.5-0.2,0.7c-0.2,0.4-0.2,0.5-0.3,0.7c-0.1,0.3,0.1,0.2,0.1,0.2
		c0.3-0.2,0.5-0.3,0.7-0.6c0.3-0.2,1.1-1,1.3-1.2c0.7-0.7,1.1-1,1-1.3c0-0.1-0.1-0.4-0.1-0.6c0-0.5,0.2-0.9,1-1.5
		c0.8-0.6,1.5-0.7,2.2-1.5c0.7-0.7,0.2-1.6,0.8-2.3c0.6-0.7,1.7-1,2-1.5c0.6-0.8,0.5-1,1.1-1.9c0.4-0.7,2.3-2.6,3.4-3.7
		C549.5,99.1,550.2,97.1,552,94 M575.2,58.7c-0.4,0.1-0.8,0.4-0.6,0.6c0.1,0.2,0.6,0.2,1.4-0.2c0.8-0.4,1.2-0.7,0.8-0.7
		C576.7,58.4,575.6,58.5,575.2,58.7 M535.9,79.4c-2.2,0.4-2.9,0.5-3.3,0.6c-3.7,3.3-1.7,6.4-0.6,7.1c0.8,0.5-0.1-0.3,3.5-4.7
		c1.2-1.5,4-3.3,4.5-3.7C539.6,78.7,537.8,79.1,535.9,79.4 M583.1,56c0.2,0.1,1.5,0.8,1.8,1c0.1,0.1,0.3,0.2,0.4,0.3
		c0.4-0.1,0.6-0.3,0.7-0.7c0.1-0.3-0.3-0.6-0.9-0.7c-0.7-0.1-1-0.2-1.4-0.3c-0.3,0-0.5,0.1-0.7,0.2C583,56,583.1,56,583.1,56"/>
</g>
</svg>
