<?xml version="1.0" encoding="utf-8"?>
<!-- Generator: Adobe Illustrator 25.1.0, SVG Export Plug-In . SVG Version: 6.00 Build 0)  -->
<svg version="1.1" id="Layer_1" xmlns="http://www.w3.org/2000/svg" xmlns:xlink="http://www.w3.org/1999/xlink" x="0px" y="0px"
	 viewBox="0 0 20 20" style="enable-background:new 0 0 20 20;" xml:space="preserve">
<style type="text/css">
	.arrow-circle--white{fill:#000000;}
</style>
<path class="arrow-circle--white" d="M10,0C4.5,0,0,4.5,0,10c0,5.5,4.5,10,10,10s10-4.5,10-10C20,4.5,15.5,0,10,0z M10,19c-5,0-9-4-9-9c0-5,4-9,9-9
	s9,4,9,9C19,15,15,19,10,19z M16.4,10.3l-3.5,3.5c-0.1,0.1-0.2,0.1-0.4,0.1s-0.3,0-0.4-0.1c-0.2-0.2-0.2-0.5,0-0.7l2.7-2.7H3.5
	C3.2,10.4,3,10.2,3,9.9s0.2-0.5,0.5-0.5h11.3l-2.7-2.7C12,6.5,12,6.2,12.1,6s0.5-0.2,0.7,0l3.5,3.5C16.6,9.8,16.6,10.1,16.4,10.3z"
	/>
</svg>
