<?xml version="1.0" encoding="utf-8"?>
<!-- Generator: Adobe Illustrator 25.1.0, SVG Export Plug-In . SVG Version: 6.00 Build 0)  -->
<svg version="1.1" id="Layer_1" xmlns="http://www.w3.org/2000/svg" xmlns:xlink="http://www.w3.org/1999/xlink" x="0px" y="0px"
	 viewBox="0 0 815.8 106.9" style="enable-background:new 0 0 815.8 106.9;" xml:space="preserve">
<style type="text/css">
	.st0{fill:#FFFFFF;}
</style>
<g>
	<g>
		<g>
			<path class="st0" d="M310.1,33.6v33.5c0,3.7,0.1,7.4,0.2,9.4h-9.7l-0.4-4h-0.1c-2,3.4-5.6,4.7-9,4.7c-6.9,0-12.6-6-12.6-15.3
				c-0.1-10,6.3-15.7,13.3-15.7c3.3,0,6,1,7.3,2.8h0.1V33.6H310.1z M299.2,59.6c0-0.4,0-0.9-0.1-1.4c-0.4-2-2.1-3.8-4.3-3.8
				c-3.6,0-5.3,3.3-5.3,7.2c0,4.5,2.2,7,5.3,7c2.2,0,3.9-1.6,4.2-3.6c0.1-0.6,0.2-1.3,0.2-2V59.6z"/>
			<path class="st0" d="M318.7,56.8c0-4.7-0.1-7.6-0.2-10h9.3l0.4,5.4h0.2c1.6-4.5,5.4-6,7.9-6c1,0,1.4,0,2.2,0.2v10.2
				c-0.8-0.2-1.6-0.3-2.8-0.3c-3.2,0-5.4,1.3-5.9,3.7c-0.1,0.5-0.2,1.1-0.2,1.9v14.7h-10.9V56.8z"/>
			<path class="st0" d="M364.1,56.9c0-3.9-0.1-7.4-0.2-10.1h9.4l0.5,3.8h0.2c1.1-1.6,3.9-4.5,8.9-4.5c6.9,0,10.7,4.7,10.7,12.9v17.5
				h-10.9V60.3c0-3.4-1.2-5.4-3.8-5.4c-2.1,0-3.1,1.5-3.6,2.6c-0.2,0.5-0.3,1.4-0.3,2.2v16.9h-10.9V56.9z"/>
			<path class="st0" d="M412.6,58.9h0.1c0.7-1.3,1.3-2.5,1.9-3.6l4.9-8.5h13l-10.3,12l11.8,17.8h-13.4l-5.9-11.4l-2.2,2.9v8.5h-10.9
				V33.6h10.9V58.9z"/>
			<path class="st0" d="M465.2,69.2c0,3,0.1,5.7,0.5,7.2h-9.8l-0.6-2.6h-0.2c-2.1,2.4-5.1,3.3-8.3,3.3c-6,0-9.8-4.4-9.8-9.4
				c0-8,7.1-11.5,17.2-11.5V56c0-1.2-0.9-2.5-4.8-2.5c-3.1,0-6.5,1.1-8.4,2.2l-1.9-6.9c1.9-1,6.2-2.7,12.3-2.7
				c10.2,0,13.8,5.7,13.8,13.1V69.2z M454.6,62.9c-4.4,0-6.9,1.3-6.9,3.9c0,1.9,1.3,2.8,3.1,2.8c1.6,0,3.3-1.1,3.7-2.7
				c0.1-0.5,0.1-1,0.1-1.6V62.9z"/>
			<path class="st0" d="M481,46.8l1.7,10.9c0.5,3,1,6.3,1.5,9.8h0.1c0.5-3.5,1.4-6.9,2-9.8l2.4-11h8.5l2.2,10.6
				c0.7,3.3,1.4,6.7,2,10.2h0.1c0.4-3.5,0.9-6.9,1.5-10.3l1.8-10.5h10.6l-8.9,29.7h-10.3l-2.1-8.8c-0.6-2.8-1-5.3-1.6-9.1h-0.1
				c-0.4,3.8-0.9,6.4-1.6,8.9l-2.2,8.9h-10.3L470,46.8H481z"/>
			<path class="st0" d="M547.1,69.2c0,3,0.1,5.7,0.5,7.2h-9.8l-0.6-2.6H537c-2.1,2.4-5.1,3.3-8.3,3.3c-6,0-9.8-4.4-9.8-9.4
				c0-8,7.1-11.5,17.2-11.5V56c0-1.2-0.9-2.5-4.8-2.5c-3.1,0-6.5,1.1-8.4,2.2l-1.9-6.9c1.9-1,6.2-2.7,12.3-2.7
				c10.2,0,13.8,5.7,13.8,13.1V69.2z M536.5,62.9c-4.4,0-6.9,1.3-6.9,3.9c0,1.9,1.3,2.8,3.1,2.8c1.6,0,3.3-1.1,3.7-2.7
				c0.1-0.5,0.1-1,0.1-1.6V62.9z"/>
			<path class="st0" d="M555.5,56.8c0-4.7-0.1-7.6-0.2-10h9.3l0.4,5.4h0.2c1.6-4.5,5.4-6,7.9-6c1,0,1.4,0,2.2,0.2v10.2
				c-0.8-0.2-1.6-0.3-2.8-0.3c-3.2,0-5.4,1.3-5.9,3.7c-0.1,0.5-0.2,1.1-0.2,1.9v14.7h-10.9V56.8z"/>
			<path class="st0" d="M590,65.4c0.4,2.4,3.8,3.7,7.6,3.7c2.8,0,5.5-0.3,8.2-1.2l1.4,7.3c-3.6,1.4-7.4,1.9-11.1,1.9
				c-10.4,0-16.4-5.8-16.4-15.2c0-6.9,4.5-15.8,15.4-15.8c9.6,0,13.7,7.1,13.7,15.2c0,1.8-0.2,3.4-0.4,4.1H590z M598.8,58.1
				c0-1.7-0.8-4.8-4.2-4.8c-3.2,0-4.5,3-4.7,4.8H598.8z"/>
			<path class="st0" d="M620.6,77.2c-3.6,0-6.2-2.7-6.2-6.3c0-3.7,2.6-6.3,6.2-6.3c3.6,0,6.2,2.5,6.2,6.3
				C626.9,74.5,624.4,77.2,620.6,77.2L620.6,77.2z"/>
			<path class="st0" d="M656.3,75.9c-1.8,0.8-4.9,1.3-8.2,1.3c-9.8,0-16.1-5.8-16.1-15.3c0-8.5,5.8-15.8,17.4-15.8
				c2.2,0,4.8,0.3,6.9,1l-1.6,8c-1-0.4-2.5-0.8-4.6-0.8c-4.1,0-6.9,2.8-6.9,7.1c0,4.8,3.4,7.1,7.2,7.1c1.9,0,3.4-0.2,4.8-0.7
				L656.3,75.9z"/>
			<path class="st0" d="M692.2,61.3c0,10.8-7.7,15.8-16.1,15.8c-8.9,0-15.8-5.7-15.8-15.3c0-9.4,6.2-15.7,16.4-15.7
				C686.1,46.1,692.2,52.4,692.2,61.3z M671.6,61.6c0,4.4,1.5,7.9,4.8,7.9c2.9,0,4.5-3.1,4.5-7.9c0-4.1-1.3-7.9-4.6-7.9
				C672.8,53.8,671.6,57.7,671.6,61.6z"/>
			<path class="st0" d="M703,77.2c-3.6,0-6.2-2.7-6.2-6.3c0-3.7,2.6-6.3,6.2-6.3c3.6,0,6.2,2.5,6.2,6.3
				C709.2,74.5,706.7,77.2,703,77.2L703,77.2z"/>
			<path class="st0" d="M745.2,66.3c0,4.2,0.1,7.6,0.2,10.2H736l-0.5-3.9h-0.2c-1.1,1.6-3.7,4.6-9,4.6c-6.6,0-10.5-4.3-10.5-12.9
				V46.8h10.9v15.8c0,3.8,1.3,5.9,3.8,5.9c2.1,0,3.1-1.4,3.5-2.5c0.2-0.4,0.3-1,0.3-1.6V46.8h10.9V66.3z"/>
			<path class="st0" d="M764.7,58.9h0.1c0.7-1.3,1.3-2.5,1.9-3.6l4.9-8.5h13l-10.3,12l11.8,17.8h-13.4l-5.9-11.4l-2.2,2.9v8.5h-10.9
				V33.6h10.9V58.9z"/>
			<g>
				<path class="st0" d="M344.6,76.5V46.8h10.8v29.7H344.6z"/>
			</g>
			<g>
				<path class="st0" d="M349.9,42.4c-3.6,0-6.1-2.7-6.1-6.3c0-3.7,2.6-6.3,6.2-6.3c3.6,0,6.1,2.5,6.2,6.3
					C356.2,39.8,353.6,42.4,349.9,42.4L349.9,42.4z"/>
			</g>
		</g>
		<g>
			<path class="st0" d="M32.4,76.5V60.8h-2.7v-4.7h2.7v-0.8c0-2.4,0.7-5.1,2.6-6.8c1.6-1.5,3.8-2,5.6-2c1.4,0,2.5,0.2,3.4,0.4
				l-0.2,4.9c-0.5-0.2-1.2-0.3-2-0.3c-2.1,0-2.9,1.6-2.9,3.6v1h4.1v4.7h-4v15.7H32.4z"/>
			<path class="st0" d="M66.7,66.1c0,7.4-5.3,10.8-10.7,10.8c-5.9,0-10.5-3.9-10.5-10.5c0-6.6,4.3-10.8,10.8-10.8
				C62.6,55.7,66.7,60,66.7,66.1z M52,66.3c0,3.5,1.5,6.1,4.2,6.1c2.4,0,4-2.5,4-6.1c0-3-1.2-6.1-4-6.1C53.1,60.2,52,63.3,52,66.3z"
				/>
			<path class="st0" d="M71.7,62.8c0-3-0.1-4.9-0.2-6.7h5.4l0.2,3.7h0.2c1-2.9,3.5-4.2,5.5-4.2c0.6,0,0.9,0,1.3,0.1v6
				c-0.5-0.1-1-0.2-1.7-0.2c-2.3,0-3.9,1.2-4.3,3.2C78,65.2,78,65.7,78,66.2v10.3h-6.3V62.8z"/>
			<path class="st0" d="M105.4,50.6v5.5h4.5v4.7h-4.5v7.3c0,2.4,0.6,3.6,2.5,3.6c0.9,0,1.2,0,1.9-0.2l0,4.8
				c-0.8,0.3-2.3,0.6-4.1,0.6c-2,0-3.7-0.7-4.7-1.8c-1.2-1.2-1.7-3.2-1.7-6v-8.3h-2.7v-4.7h2.7v-3.8L105.4,50.6z"/>
			<path class="st0" d="M114.9,47h6.3v11.6h0.1c0.7-0.9,1.5-1.6,2.5-2.1c1-0.5,2.1-0.8,3.3-0.8c4,0,7.1,2.8,7.1,8.9v11.9h-6.3V65.3
				c0-2.7-0.9-4.5-3.3-4.5c-1.7,0-2.7,1.1-3.2,2.2c-0.2,0.4-0.2,1-0.2,1.4v12h-6.3V47z"/>
			<path class="st0" d="M145.1,68.3c0.2,2.6,2.8,3.9,5.7,3.9c2.2,0,3.9-0.3,5.6-0.8l0.8,4.3c-2.1,0.8-4.6,1.3-7.3,1.3
				c-6.9,0-10.8-4-10.8-10.4c0-5.1,3.2-10.8,10.3-10.8c6.6,0,9,5.1,9,10.1c0,1.1-0.1,2-0.2,2.5H145.1z M152.5,64
				c0-1.5-0.7-4.1-3.6-4.1c-2.7,0-3.7,2.4-3.9,4.1H152.5z"/>
			<path class="st0" d="M173.8,76.5V60.8h-2.7v-4.7h2.7v-0.8c0-2.4,0.7-5.1,2.6-6.8c1.6-1.5,3.8-2,5.6-2c1.4,0,2.5,0.2,3.4,0.4
				l-0.2,4.9c-0.5-0.2-1.2-0.3-2-0.3c-2.1,0-2.9,1.6-2.9,3.6v1h4.1v4.7h-4v15.7H173.8z"/>
			<path class="st0" d="M205.5,71.5c0,2,0.1,3.8,0.3,4.9h-5.7l-0.4-2h-0.1c-1.3,1.6-3.4,2.5-5.8,2.5c-4.1,0-6.6-3-6.6-6.2
				c0-5.3,4.7-7.8,11.9-7.8v-0.3c0-1.1-0.6-2.6-3.7-2.6c-2.1,0-4.3,0.7-5.6,1.5l-1.2-4.1c1.4-0.8,4.2-1.8,7.9-1.8
				c6.8,0,8.9,4,8.9,8.8V71.5z M199.4,66.9c-3.3,0-5.9,0.7-5.9,3.2c0,1.6,1.1,2.4,2.5,2.4c1.6,0,2.9-1,3.3-2.3
				c0.1-0.3,0.1-0.7,0.1-1.1V66.9z"/>
			<path class="st0" d="M226.8,76c-1.1,0.5-3.2,1-5.6,1c-6.6,0-10.8-4-10.8-10.4c0-5.9,4.1-10.8,11.6-10.8c1.7,0,3.5,0.3,4.8,0.8
				l-1,4.7c-0.7-0.3-1.9-0.6-3.5-0.6c-3.3,0-5.5,2.4-5.4,5.7c0,3.7,2.5,5.7,5.6,5.7c1.5,0,2.7-0.2,3.6-0.7L226.8,76z"/>
			<path class="st0" d="M239.2,50.6v5.5h4.5v4.7h-4.5v7.3c0,2.4,0.6,3.6,2.5,3.6c0.9,0,1.2,0,1.9-0.2l0,4.8
				c-0.8,0.3-2.3,0.6-4.1,0.6c-2,0-3.7-0.7-4.7-1.8c-1.2-1.2-1.7-3.2-1.7-6v-8.3h-2.7v-4.7h2.7v-3.8L239.2,50.6z"/>
			<path class="st0" d="M248.6,70.9c1.2,0.7,3.6,1.5,5.4,1.5c1.9,0,2.7-0.7,2.7-1.7c0-1-0.6-1.5-3-2.3c-4.2-1.4-5.8-3.7-5.8-6.1
				c0-3.8,3.2-6.7,8.3-6.7c2.4,0,4.5,0.5,5.7,1.2l-1.1,4.4c-0.9-0.5-2.7-1.2-4.4-1.2c-1.5,0-2.4,0.6-2.4,1.7c0,1,0.8,1.5,3.3,2.3
				c3.9,1.3,5.5,3.3,5.5,6.3c0,3.8-3,6.6-8.8,6.6c-2.7,0-5-0.6-6.6-1.5L248.6,70.9z"/>
		</g>
	</g>
</g>
</svg>
