<?xml version="1.0" encoding="utf-8"?>
<!-- Generator: Adobe Illustrator 25.1.0, SVG Export Plug-In . SVG Version: 6.00 Build 0)  -->
<svg version="1.1" id="Logo" xmlns="http://www.w3.org/2000/svg" xmlns:xlink="http://www.w3.org/1999/xlink" x="0px" y="0px"
	 viewBox="0 0 150.7 1067.4" style="enable-background:new 0 0 150.7 1067.4;" xml:space="preserve">
<style type="text/css">
	.st0{fill:#FFFFFF;}
</style>
<g>
	<path class="st0" d="M54.5,718.9v-20.1h0.6l6,6.9c10.1,0.3,19.6,0.4,28.1,0.3c8.7,0,16.8-0.3,24.3-0.8v8c-0.4,0-1.1,0.2-1.7,0.8
		c-0.7,0.6-1.4,1.2-2,1.6l-43.6,34.6c13.4,0,26.7-0.2,40.5-0.6l0,0l5.6-7.6h0.8v20h-0.8l-5.6-6.9c-11.8-0.6-27-0.6-45.8,0l-5.8,8.2
		h-0.6v-17.4c1.4-0.8,3.5-2.2,6-4.3c2.7-2,5.9-4.5,9.6-7.7c3.6-3,8-6.5,12.9-10.4c4.9-3.9,10.3-8.2,16.6-13.1
		c-7.3,0-14.1,0.1-20.5,0.1c-6.5,0.1-12.4,0.2-17.9,0.3l-6,7.9h-0.7V718.9z M59.9,663.9l-4.8-6.7h-0.6v23.6h0.6l4.8-6.8
		c15.7-0.1,31.5-0.1,47.5,0l4.9,7h0.7v-24.1h-0.7l-4.9,7C92.1,664.2,76.4,664.2,59.9,663.9 M108,597.5c0.4,8.3,0.4,16.3,0,23.9
		c-7.7,0.1-15.4,0.1-23,0c-0.1-4.4-0.2-10.5-0.2-18.4l6.7-4.5v-0.7H73.4v0.7l6.8,4.5c0,10.4-0.1,16.6-0.2,18.5
		c-3.3,0.1-6.7,0.2-10,0.2s-6.7,0-10.3-0.1c-0.3-3.6-0.3-7.6-0.3-11.5c0-3.9,0.1-8,0.1-12.3l6.8-4.9v-0.7H54.5V638h0.6l4.8-6.7
		c13.6-0.2,29.4-0.2,47.5,0l4.9,6.7h0.8v-47h-13v0.7L108,597.5z M55.1,799.8l6-7.8c5.5-0.1,11.4-0.2,17.9-0.2
		c6.4-0.1,13.2-0.1,20.5-0.1c-6.3,4.7-11.7,9-16.6,12.9c-4.9,4-9.3,7.5-12.9,10.6c-3.7,3-6.8,5.5-9.6,7.5c-2.5,2-4.6,3.5-6,4.3v17.4
		H55l5.8-8.1c18.8-0.6,34-0.6,45.8,0l5.6,6.8h0.8v-20h-0.8l-5.6,7.6l0,0c-13.7,0.4-27.1,0.7-40.5,0.7l43.6-34.7c0.6-0.6,1.3-1,2-1.6
		c0.6-0.5,1.3-0.8,1.7-0.8v-8c-7.5,0.6-15.6,0.8-24.3,0.8c-8.5,0.1-17.9,0-28.1-0.4l-6-6.9h-0.6v20H55.1z M39.8,1050.7l5.6-9
		l62.8-0.6c2.6,0,4.8,0,6.7,0.1c1.8,0.1,3.7,0.3,5.3,0.6c1.6,0.3,3.1,0.8,4.5,1.4c1.3,0.7,2.7,1.6,4,2.7c1.7,1.4,3,3.1,4,5
		c1,2,1.4,4.1,1.4,6.4c-0.2-0.2-0.6-0.5-1-0.6c-0.3-0.2-0.7-0.3-1.1-0.5c-0.4-0.1-1-0.2-1.6-0.2c-0.5,0-1.2,0.1-1.8,0.4
		c-0.7,0.3-1.2,0.7-1.8,1.2c-0.5,0.6-0.9,1.1-1.2,1.8c-0.4,0.7-0.6,1.5-0.6,2.2c0,0.8,0.2,1.5,0.5,2.2c0.3,0.7,0.7,1.3,1.2,1.8
		c0.5,0.6,1.1,1,1.9,1.3c0.7,0.3,1.5,0.6,2.3,0.6c1.3,0,2.4-0.4,3.3-0.9c1-0.6,1.7-1.4,2.3-2.4c0.5-1,1-2,1.3-3.1
		c0.3-1.2,0.5-2.3,0.5-3.3c0-2.3-0.4-4.5-1.1-6.6c-0.8-2.1-1.7-4-3-5.8s-2.8-3.5-4.6-5.1c-1.9-1.5-3.8-2.9-6.1-4
		c-1.9-1-3.7-1.9-5.4-2.7c-1.7-0.8-3.4-1.6-5.7-2.1c-2-0.6-4.2-1.1-6.5-1.4c-2.4-0.3-5.1-0.4-8.1-0.4c-3.2,0.1-6.4,0.1-9.8,0.2
		s-7.2,0.1-11.4,0.2c-4.2,0.1-8.8,0.1-14,0.2c-5.3,0.1-11.3,0.1-18,0.1l-4.8-7.5h-0.7v27.8H39.8z M95.6,954.7
		c-3.5-1.2-7.4-1.8-11.8-1.8c-4,0-7.6,0.5-10.9,1.4c-3.3,1-6.1,2.3-8.6,4.1c-2.4,1.8-4.5,4-5.8,6.6c-1.4,2.6-2.1,5.5-2.1,8.8
		c0,3.2,0.7,6.2,2.1,8.7c1.3,2.5,3.4,4.7,5.8,6.5c2.4,1.8,5.2,3.1,8.5,4.1c3.4,0.9,7,1.4,10.9,1.4c4.3,0,8.1-0.6,11.5-1.7
		c3.4-1.1,6.3-2.7,8.7-4.7c2.3-1.9,4.1-4.2,5.5-6.8c1.1-2.6,1.8-5.2,1.8-8.1c0-2.7-0.7-5.2-1.7-7.6c-1.4-2.4-3.1-4.6-5.4-6.5
		C101.8,957.3,99,955.9,95.6,954.7 M67.5,946c2.3-1.4,4.9-2.6,7.6-3.4c2.7-0.8,5.6-1.2,8.7-1.2c4.3,0,8.3,0.8,12.1,2.4
		c3.8,1.7,7.1,3.8,10,6.8c3,2.9,5.3,6.2,7,10c2,3.9,2.4,8.1,2.4,12.6s-0.4,8.7-2.4,12.6c-1.7,3.9-4,7.3-6.9,10.3s-6.2,5.3-10,7
		s-7.9,2.5-12.2,2.5c-4.4,0-8.6-0.8-12.4-2.5c-3.9-1.7-7.2-3.9-10.1-6.9c-3-2.9-5.2-6.4-6.8-10.3c-1.7-4-2.5-8.3-2.5-13
		c0-2.7,0.3-5.2,1-7.8c0.7-2.6,1.7-5,3.1-7.3c1.3-2.3,3-4.5,5-6.4C63,949.2,65.1,947.4,67.5,946 M55.1,885.2l4.8-6.7h20
		c0.1,10.5,0.1,20.8,0,31h-20l-4.8-6.7h-0.6v23.4h0.6l4.8-6.6h47.5l4.9,6.6h0.7v-23.4h-0.7l-4.9,6.7H84.6c-0.1-10.2-0.1-20.5,0-31
		h22.8l4.9,6.7h0.7v-23.4h-0.7l-4.9,6.6c-14.9,0.2-30.6,0.2-47.5,0l-4.8-6.6h-0.6v23.4H55.1z M39.9,354c0.7-1.1,1.5-2.3,2.3-3.4
		c0.8-1.2,1.6-2.2,2.4-3.2c7.7,2.1,14.6,4.2,20.9,5.9c6.2,1.8,11.5,3.4,16.1,4.7c4.5,1.3,8.2,2.4,11.2,3.2c2.9,0.7,4.9,1.3,6,1.5
		l-53.5,16.2c-1.1-1.1-2.2-2.2-3.1-3.2c-0.9-1.1-1.7-2.1-2.3-3.1h-0.7v25.9H40l5-6.5c5.6,1.8,10.9,3.4,16.1,4.9
		c5,1.5,9.7,2.9,14.1,4.2s8.5,2.5,12.3,3.6c3.8,1.2,7.5,2.1,10.9,3.1L45,423.1l-5.2-6.3h-0.7v24.9h0.7c0.9-1.1,1.6-2,2.2-2.7
		c0.6-0.7,1-1.3,1.5-1.8c0.4-0.5,0.8-0.9,1.1-1.1c0.4-0.3,0.7-0.6,1.2-0.6c2.5-0.8,6.1-1.9,10.7-3.5c4.8-1.5,10.2-3.2,16.1-5.2
		c6-2,12.5-4.2,19.5-6.4c7.1-2.2,14.3-4.5,22-6.7v-8.2c-0.4,0.1-0.6,0.1-0.8,0.1c-0.6,0-1.1-0.1-1.5-0.2c-0.5-0.1-1-0.3-1.5-0.4
		c-0.5-0.2-0.9-0.4-1.4-0.5c-2.6-0.7-5.3-1.5-8.3-2.2c-3-0.8-6.2-1.7-9.5-2.6c-3.3-1-6.7-1.9-10.2-2.8c-3.4-1-6.8-1.9-10.3-3
		c-3.3-0.9-6.6-1.9-9.7-2.9c-3.3-0.8-6.2-1.8-8.9-2.6l62-19.4v-7.9c-1.3-0.3-3.8-0.9-7.5-2c-3.6-1.1-8.3-2.4-14.1-4.2
		c-5.7-1.7-12.6-3.8-20.4-6.2c-7.9-2.3-17-5-26.8-7.9c-1.6-1.7-2.8-3-3.8-4.1c-0.9-1-1.6-1.7-1.9-2.1h-0.6v19.1h1V354z M87,296.7
		l-24.8,9.6l24.8,9V296.7z M106.5,277.5l5.9-6.7h0.7v25.7h-0.7l-5.7-7.5l-15.4,6.1c-0.1,6.8-0.1,14.2,0,22l15.4,5.6l5.7-7.4h0.7
		v19.8h-0.7l-5.7-6.8l-53.3-20.4v-8.4L106.5,277.5z M108.2,81.8c0.3,8.6,0.3,16.5,0,24c-7.7,0.1-15.4,0.1-23,0
		c-0.1-4.3-0.2-10.4-0.2-18.5l6.7-4.5v-0.7H73.5v0.7l6.8,4.5c0,10.5-0.1,16.6-0.2,18.6c-3.3,0.1-6.6,0.2-10,0.2
		c-3.3,0.1-6.7,0-10.3-0.1c-0.3-3.6-0.3-7.4-0.3-11.4c0-3.9,0.1-8.2,0.1-12.6l6.8-4.8v-0.6H54.7v45.9h0.6l4.8-6.6
		c13.6-0.2,29.4-0.2,47.5,0l4.9,6.6h0.8V75.4h-13v0.7L108.2,81.8z M83.5,32.1c0-5-1-8.8-3.3-11.5c-2.1-2.7-5.3-4-9.4-4
		c-1.6,0-3.1,0.3-4.5,0.9c-1.4,0.5-2.7,1.4-3.7,2.5c-1.1,1.1-2,2.4-2.7,4.1c-0.6,1.5-0.9,3.3-0.9,5.3v1.5c0,0.7,0,1.4,0.1,2.3
		c0,0.9,0,1.8,0.1,2.7c0,0.9,0.1,1.9,0.1,2.6l24.1,0.1c0.1-0.4,0.1-0.9,0.1-1.6c0-0.5,0-1.2,0.1-1.9v-1.7L83.5,32.1 M111.4,1.7
		c0.5-0.6,0.8-1,1-1.3h0.7v13.3L90,27.4c-0.9,0.6-1.6,1.2-2,2c-0.2,0.6-0.5,1.7-0.5,2.9v2.5c0,1.2,0.1,2.4,0.2,3.8l20.1-0.2l4.6-6.6
		h0.7v24.1h-0.7l-4.9-7H60.3l-5,6.6h-0.6V37.2v-8.9c0-3.5,0.3-6.7,1.1-9.5s1.8-5.3,3.3-7.3c1.4-2,3.2-3.6,5.1-4.7
		c1.9-1.1,4-1.7,6.3-1.7c2.2,0,4.2,0.6,6,1.5c1.8,1,3.3,2.3,4.7,4c1.4,1.7,2.4,3.7,3.2,6c0.8,2.3,1.2,4.9,1.3,7.7
		c0.2-2,0.8-3.6,1.6-5c1-1.3,2.3-2.4,4-3.4l14.3-9.2c0.5-0.3,1.1-0.8,1.8-1.4c0.7-0.5,1.6-1.1,2.3-1.7
		C110.3,2.9,110.9,2.3,111.4,1.7 M79.3,169.4c-4.8-5.1-8.9-9.4-12.2-13c-3.2-3.6-5.6-6.2-7.2-8.1l-4.6-8.9h-0.6v19.7h0.6l4.5-3
		c2.2,2,4.2,4.2,6.3,6.3c2,2.1,4,4.2,5.9,6.3c1.9,2,3.8,4,5.5,5.9s3.4,3.7,4.7,5.5c6.8-6.8,15.2-14.5,25.6-23.5l4.6,2.5h0.7v-21.3
		h-0.7l-4.6,4.5C94.8,155,85.4,164,79.3,169.4 M60,180.1l-4.8-6.8h-0.6v23.8h0.6l4.8-6.7c15.8-0.1,31.5-0.1,47.5,0l4.9,7h0.7v-24.1
		h-0.7l-4.9,6.9C91.4,180.2,75.6,180.2,60,180.1 M107.9,218.3v11.6c0,3.7-0.1,7-0.1,10c-16.1,0.2-31.9,0.2-47.8,0l-4.7-7.4h-0.7
		v24.4h0.7l4.7-6.7c15.8-0.2,31.4-0.2,47.5,0l4.9,6.7h0.7V212H100v0.9L107.9,218.3z M93.1,546.6c-0.9,1.1-2.9,2-5.6,2
		c-4.9,0-11.1-2.9-14.3-7.3c-4.2-5.6-4.4-10.8-5-12.5c0.1,3.4-2,5.3-3.3,5c-0.4-0.1,0.7-1.2,0.8-3c0.1-2.5-0.7-4.3-2.7-7.3
		c-0.6-0.9-0.2-1.2,0.6-1.1c-2-1.7-4.8-3.2-7.8-3.5c1.5-0.9,2.3-3.5,2.6-5.2c0.3-1.2,1.2-5.7,1.2-6.5c-0.2,0.4-1.7,4.2-2.3,6
		c-0.4,1-0.7,1.9-1,2.5c-0.3,0.7-0.6,1.3-0.9,1.7c-0.1,0.1-0.2,0.2-0.3,0.4s-0.3,0.3-0.5,0.5c-1.4,1.4-5.9,4.4-9.3,6
		c-3.7,1.7-4.8,2.1-8.5,2.8c-0.7,0.1-1.3,0.2-1.9,0.2c-0.7,0-1.4,0-2.2-0.1c-0.5-0.1-0.9-0.3-1.2-0.4c-0.3-0.2-0.4-0.3-0.6-0.4
		c-0.6-0.5-0.9-0.9-1-1.2c-0.1-0.2-0.1-0.4-0.1-0.4c0-0.4,1,0.7,2.9,1c3.3,0.7,6-2.1,7-3.1c4.1-3.8,5.1-6,7.7-7.9
		c0.5-0.3,0.5,0,0.5,0.5c0,0.1,0,0.1,0,0.2c-0.1,0.9-0.7,2.2-0.1,1.7c1.2-0.9,1.5-2,1.7-3.2c0-0.1,0.1-0.3,0.1-0.4
		c0.1-0.6,0.2-1,0.3-1.3c0.1-0.2,0.2-0.4,0.3-0.7c0.1-0.1,0.2-0.3,0.2-0.5c0.1-0.2,0.2-0.4,0.3-0.5s0.2-0.1,0.2,0.3
		c0,0.2,0,0.4,0,0.7c0,0.1,0,0.2,0,0.4c0.1,0.5,0.1,1.1,0.1,1.6l0,0c0,0.4,0,0.7,0,1.1c0,0.4-0.1,0.9-0.2,1.2
		c-0.4,1.5-1.2,3.1-0.2,2c0.1-0.1,0.2-0.3,0.3-0.4c0.7-0.9,1.2-1.5,1.3-2.7l0,0c0-0.3,0-0.7-0.1-1.1c-0.1-0.4-0.2-0.7-0.3-1.3
		c-0.1-0.7-0.2-1.3-0.2-1.8c-0.1-1.6,0-2.7,0.2-3.5c0-0.2,0-0.3,0-0.4c-0.1-0.3-0.7-0.1-1,0.7c-0.1,0.3-0.3,0.7-0.3,1.1
		c-0.3,0.9-0.3,1.4-1,2l-0.1,0.1c0,0-0.4,0.3-0.4,0.4c-0.2,0.2-0.3,0.4-0.4,0.7c0,0.1-0.1,0.1-0.1,0.2c0,0.1-0.1,0.1-0.1,0.2
		c-0.1,0.2-0.3,0.3-0.5,0.4c-0.2,0.1-0.5,0.2-0.7,0.2c-0.3,0.1-0.8,0.3-1.2,0.4c-2.5,1.5-5.2,2.5-7.6,4.6c-0.8,0.6-2.6,2.7-3.4,3.1
		c-0.7,0.4-2.3,0.7-2.4,0.3c-0.1-0.9,4.7-3.4,5.1-3.9c0.2-0.2-1.4,0.2-2.4,0.5c-0.7,0.2-1.7,0.7-2,0.9c0,0-1.3,0.6-2.4,2
		c-0.4,0.5-0.8,1.3-1,1.6s-0.6-0.1,0.3-1.7c0.6-1.1,0.7-1.5,0.6-1.7c-1.6,1.5-1.7,2.7-1.8,3c-0.2,0.5-1.2-1.6-0.9-3.8
		c0.2-1.9,0.6-3.7,1-5.4c0.2-0.9-0.7-0.1-1.2,0.7c-0.8,1.2-1.3,2.8-1.5,2.9c-0.2,0.2-0.1-2,0-3.2c0.1-0.8-0.4-0.3-0.8,0.7
		c-0.3,0.9-0.3,1.9-0.5,1.6c-0.2-0.2-0.6-1.2-1.8-1.5c-1.2-0.3-1.5,0-1.7-0.2s1.4-1.6,4.4-4.1s6.6-4.7,10.2-6.4
		c6.9-3.1,13.4-3.6,13.4-3.6s0.3-0.1-0.2-0.4c-2.1-1.3-7-2.3-10.1-2.8c-1-0.2-2.2,0.2-2.9,0.7c-0.1,0-0.1,0.1-0.2,0.1
		c-1,0.8-2.1,0.2-3.3,0.1c-1.3-0.1-1.5,0.9-2.1,1.2c-1,0.6-1.3,0.4-1.3,0.4c0-0.2-0.1-0.8-0.2-2.1c-0.1-1.4,0.5-2.6,0.9-3.1
		c0.5-0.6,2.3-1.4,2.1-3.2c-0.1-0.9,0.3-2,1.2-2.8c0.7-0.6,0.7-0.7,1.1-1.3c0.3,0.2,0.8,0.6,1.5,0.5c0.5,0,1-0.3,1.4-0.6
		c0.2-0.2,0.3-0.3,0-0.4c-0.1,0-0.1,0-0.3,0c-0.3,0-0.6,0-0.8,0c-0.9-0.1-1-0.5-0.8-0.7c0.1-0.1,0.2-0.2,0.4-0.3
		c0.1-0.1,0.3-0.2,0.5-0.2c0.3-0.2,0.5-0.3,0.8-0.6c0.1-0.1,0.3-0.2,0.3-0.3c0.8-0.8,1.6-2.5,1.8-3.1c0.1-0.3,0-0.4-0.1-0.2
		c-1.3,1.9-1.6,2.3-2.2,2.8c-0.2,0.1-0.6,0.4-0.8,0.5c-0.3,0.2-0.7,0.3-1.2,0.6c0-0.2-0.1-0.5-0.3-0.7s-0.3-0.2-0.3-0.1
		c-0.1,0.1-0.1,0.4-0.1,0.9c0,0.2,0,0.3,0,0.5v0.1c0,0.1,0,0.2-0.1,0.3c0,0.1,0,0.1,0,0.2l0,0c-0.6,0.8-0.5,1.4-1.1,1.7
		c-0.6,0.4-0.2-0.4-0.6-0.9c-0.3-0.5-1.7,0.6-1.1,1c0.9,0.5-0.1,0.7-0.7,0.7c-0.6-0.1-1.3,0-1.6,0.2h-0.1c-0.2,0.1-0.4-0.3-0.5-0.5
		s0-0.2,0.1-0.3l0,0c0.1-0.1,0.4-0.3,0.6-0.7c0,0,0,0,0-0.1c0,0,0,0,0-0.1c0,0,0,0,0-0.1s0.1-0.2,0.1-0.4v-0.1c0-0.2,0-0.4,0-0.6
		c0-0.1,0-0.2-0.1-0.4c0-0.1-0.1-0.2-0.1-0.3c-0.1-0.2-0.2-0.3-0.3-0.4c-0.1-0.1-0.4-0.2-0.5,0.1c0,0.1,0,0.2,0,0.3
		c0,0.4,0,0.8,0,0.8c0,0.1,0,0.1,0,0.1c0,0.1-0.1,0.2-0.1,0.3c-0.1,0.1-0.2,0.1-0.4,0.2c-0.1,0.1-0.3,0.2-0.3,0.3
		c-0.4,0.4-0.8,1.2-1.1,1.8c-0.3,0.6-0.9,1.6-1.2,2c-0.4,0.4-0.6,0.5-1.1,0.7s-1.1,0.4-1.5,0.7s-0.8,0.7-0.9,0.4
		c-0.3-0.4,0-1.1,0.4-1.4c0.2-0.1,0.4-0.3,0.6-0.4V490c-0.1-0.1-0.9,0-1.1,0c-0.6,0-1.3-0.5-1.3-0.5l0,0c0-0.1,0.4,0,0.7,0.1
		c0.1,0,0.2,0.1,0.4,0.1l0,0h0.1c0.1,0,0.3,0,0.4,0c0.7-0.1,1.8-0.3,2-0.3s0.4-0.2,0.4-0.5c-0.1-0.3-0.6-0.7-0.6-0.7s0.2,0,0.2-0.3
		c0-0.1,0-0.2-0.1-0.3c-0.2-0.2-0.4-0.2-0.6-0.3c-0.1,0-0.2,0-0.3,0c-0.1,0-0.1-0.1-0.2-0.2c-0.1,0-0.2-0.1-0.3-0.1
		c-0.3-0.1-0.4-0.1-0.5,0c-0.1,0-0.1,0.1-0.2,0.1c-0.3,0.3-0.1,0.5-0.1,0.5s-0.5-0.1-0.8,0c-0.4,0.1-0.2,0.6-0.2,0.6s-0.3-0.1-0.7,0
		c-0.4,0.1-0.6,0.2-0.6,0.5c0,0.1,0,0.2,0.1,0.3h-0.1c-0.3-0.2-0.3-1.8-0.2-2.1c0-0.3,0.1-0.6,0.6-0.8c0.2-0.1,0.5-0.2,0.6-0.3
		c0,0.3,0,0.7,0,0.8c0,0.2,0.2-0.1,0.2-0.7c0-0.1,0-0.2,0-0.4s0.3-0.5,0.6-0.6c0.4-0.2,1.1-0.2,2.3-0.7c0.4-0.2,0.8-0.4,1.1-0.6l0,0
		c0.4-0.3,0.5-0.4,0.8-0.5l0,0l0,0c0.1,0,0.3-0.1,0.6-0.2c0.4-0.1,0.5-0.2,0.6-0.4c0-0.1,0.1-0.2,0.1-0.3s0.1-0.3,0.3-0.3l0,0l0,0
		c0.1,0,0.1,0,0.2,0c0.2-0.1,0.3-0.2,0.3-0.4c0-0.1-0.1-0.2-0.1-0.4c0.1-0.9,0.7-0.9,1.4-1c0.1,0,0.2-0.1,0.4-0.1
		c0.7-0.2,2.1-1,3.4-2.1c2.3-2,5.8-4.3,7.3-4c0.9,0.1,1.8,1.9,2.1,2.7s0.6,5.4-0.2,10.5c-0.8,5.6-1.5,7.6-1.6,8.2
		c2.3,0.3,5.6,1,7.4,1.4c2,0.5,5.1,1.5,6.5,1.8c0,0.1-0.1,0.2-0.1,0.4c-0.1,0.2-0.1,0.2-0.2,0.5c-0.1,0.3-0.3,0.8-0.4,1.3
		c-0.3,0.9-0.4,1.8-0.5,2.3c-0.2,1.2-0.2,2.5-0.2,3.6c0,0.9,0.2,1.8,0.3,2.2c0.3,1.2,0.8,0.8,1-1.3c0.1-1.3,0-2.4-0.1-3.6
		c0-0.5-0.1-1,0-1.5c0-0.8,0.1-1.3,0.3-2.1c0.1-0.3,0.5-1.5,0.5-1.5c0-0.1,0.1-0.5,0.1-0.5c0.4-1.4,0.5-1.9,0.8-3.1
		c0.1-0.4,0.1-0.7,0.2-1c0-0.3,0.1-0.5,0.1-0.8c0.1-0.6,0.1-1.1,0.1-1.6c0-0.6,0-1.1,0-1.4c0-0.2,0-0.3,0-0.3c0.1-0.1,0.2-0.1,0.3,0
		c0.2,0.2,0.2,0.3,0.3,0.4c0.1,0.2,0.2,0.4,0.3,0.6c0.1,0.2,0.2,0.4,0.4,0.7c0.2,0.4,0.6,1,0.8,1.3c0.7,0.8,2.1,1.7,3.6,1.4
		c1.5-0.2,1.1-1.5,1.8-1.2c0.2,0.1,0.8,0.4,0.7,1.1c-0.1,0.4-0.1,0.9-0.4,1.7l0,0c-0.5-0.1-0.8-0.5-1.4,0.3
		c-0.4,0.5-0.5,1.8,0.5,1.1c0.2-0.2,0.4-0.3,0.6-0.5c0,0,0.1-0.1,0.1,0c0,0,0,0,0,0.1s-0.1,0.2-0.1,0.2c-0.6,1.5-0.4,1.6-1,2
		c-0.2,0.1-0.3,0.2-0.6,0.3c-0.2,0.1-0.3,0.1-0.5,0.2c-0.2,0.1-0.3,0.3-0.2,0.5c0,0.1,0.2,0.2,0.3,0.4c0.4,0.4,0.2,0.9,0.1,1.3
		c0,0.1-0.1,0.2-0.1,0.3c0.1-0.1,0.7-1.4,1.1-2.4c1.3,0.2,4,0.6,4.3,1c0.6,0.7-2.4,2.1-3.3,2.5c0,0-0.1,0-0.1,0.1
		c0.1,0,0.2,0.1,0.3,0.1c0.1,0.1,0.3,0.2,0.5,0.3c1.1,0.7,2.1,1.8,2.1,1.8s-0.2,1.2-0.2,3.1c0,6.1,3.9,13,4.8,15.6
		c0.2,0.6,0.4,1,0.4,1c0.1-0.3-0.4-2.9-1.1-4.9c-0.4-1.2-0.6-1.7-1.4-4.1c-0.1-0.2-0.2-0.5-0.2-0.6c0.1,0.1,0.3,0.3,0.5,0.4
		c1.5,1.3,2.9,2.1,5.1,5.4c1,1.6,1.9,3.4,2.7,5.8c0.1,0.3,0.2,0.6,0.3,0.8c2.2,7.4,2,11.3,4.1,15c1.3,2.3,3.3,3.4,5.2,3.1
		c-0.4-0.1-2.3-0.2-3.8-2.5c-1.8-2.8-2.4-6.3-2.5-7.2c2.3,3.3,6.8,9.4,12.6,8.9C93.2,546.4,93.3,546.4,93.1,546.6 M48.2,503.9
		c0.1,0.4,0.6,0.6,1,0.5c0.5-0.1,0.7-0.5,0.6-0.9c-0.1-0.4-0.6-0.6-1-0.5C48.3,503.1,48.1,503.5,48.2,503.9 M44.8,505
		c-0.1-0.4-0.5-0.6-1-0.5s-0.7,0.5-0.6,0.9c0.1,0.4,0.6,0.6,1,0.5C44.7,505.8,45,505.4,44.8,505 M33.2,513.2
		c0.3,0.1,2.5-3.3,5.5-6.3c1-1,2.1-1.8,2.4-2.1c0,0,0.9-0.8-0.8,0.1c-0.5,0.2-1.6,1-3.3,2.7c-2,1.9-3.2,3.4-3.5,3.6
		c-0.4,0.2-1.6-1.2-1.7-0.9C31.7,510.5,32.9,513.1,33.2,513.2 M23.9,506.6c0,0-0.5,0.5-0.5,0.6s1,1.8,0.9,0.9l0,0
		c-0.1-0.4-0.2-0.9-0.2-1.2C24.1,506.7,24.1,506.5,23.9,506.6 M37,498.9c-0.9-0.1-0.8,1.4-0.2,1.2s0.8-0.3,0.8-0.3
		S37.8,499,37,498.9 M9.3,513.7c1.4,0,2-2,2.1-3.1c0-0.3,0-0.8,0.1-1c0.3-0.1,0.8,0.2,0.6,1.4c-0.1,0.7,0.2,1.5,1.4,1.6
		c1.4,0.1,2.4-0.5,3.1-0.4c0.5,0.1,0.5,0.4,0.6,0.6c0,0.2,0,0.3,0.1,0.4c0.1,0.2,0.7-0.1,0.8-0.5c0.1-0.2,0.1-0.4,0.1-0.6
		c0-0.4-0.2-0.6-0.2-1c0-0.2,0.1-0.5,0.2-0.8c0.2-0.5,0.5-0.9,0.8-1.1c0.3-0.3,0.8-0.4,0.9-0.6c0.1-0.3-0.6-0.7-0.7-0.6
		c0,0,0,0.6-0.3,0.8s-0.8,0.1-1.3,0.3s-0.8,0.4-1.3,0.4c-0.6,0-1.6-0.5-1.4-1.5c0.1-0.5,0.6-0.6,1.2-0.7c-0.1,0.1-0.2,0.2-0.2,0.3
		s0,0.3,0.1,0.4c0.1,0.1,0.2-0.2,0.3-0.3c0.1-0.2,0.3-0.3,0.6-0.4c0.2-0.1,0.4-0.2,0.6-0.2s0.3,0,0.5-0.1c0.5-0.1,0.6-0.1,0.7-0.2
		c0.1-0.1,0.9-1.1,0.8-1.4c0-0.3-0.1-0.4-0.1-0.3c-0.1,0.1-0.7,0.5-2.2,0.3c-0.3-0.1-0.7-0.2-1-0.3c-0.2-0.1-0.2-0.3-0.2-0.6
		c0,0,0-0.4,0.2-0.7c0.1-0.1,0.1-0.2,0.2-0.4s0.2-0.3,0.3-0.3c0.1,0,0.1,0,0.1,0.1c0,0,0.2,0.1,0.2,0c0,0,0.2-0.2,0.3-0.3l0.1-0.1
		c0.1,0,0.2-0.1,0.2-0.1c0.2,0,0.2-0.1,0.4-0.3c0.1-0.2,0.2-0.7,0.2-1.7c0-0.1,0-0.1,0-0.2c0-0.2,0.1-0.8,0.2-1
		c0.2-0.2,0.8-0.1,1.7-0.1c0.9,0,1.1,0.1,1.3,0.1c0.2,0.1,0.4,0.3,0.3,0.5c0,0.3,0,0.4,0,0.6c0,0.2,0.4,0.3,0.7,0.4
		c0.1,0,0.3,0.2,0.4,0.2c0.1,0.1,0.1,0.2,0.2,0.2c0.1,0.1,0.3,0.2,0.6,0.2c0.3,0,0.4,0.1,0.4,0.1s0.1,0.1,0.2,0.2
		c0.3,0.3,0.7,0.3,1,0.3c0.4,0,0.7,0.2,0.9,0.4c0.3,0.4,0.3,1.1-0.1,1.7c-0.2,0.3-0.3,0.5-0.5,0.8c0,0.1-0.1,0.1,0,0.1
		c0,0.1,0.2-0.1,0.6-0.4c0.2-0.2,0.4-0.4,0.5-0.5c1-1.5,0.9-2.9,0-3.1c-0.6-0.2-1.2-0.9-2.5-1.7c-1.3-0.9-1.4-1.5-2.9-2.1
		c-0.7-0.3-1.5-0.3-2.4-0.4c-0.2,0.7-0.6,1.2-1.2,2c-0.3,0.4-0.9,0.9-1.3,1.2c-1.3,1-1.5,0.9-2.7,2.1c-0.4,0.4-0.8,1-1,1.3
		c-0.1,0.2-0.3,0.3-0.3,0.2s0-0.2,0.1-0.6c0.8-2.2,2.2-3.3,2.6-3.7c0.8-0.6,1.4-0.8,2.1-1.4c0.4-0.3,1-0.8,1.3-1.6
		c0.7-1.7,0.7-3.4,0.5-4c-0.3-0.9-0.6-1.2-0.8-1.2c0.1-0.1,0.2-0.2,0.3-0.3c0.1-0.1,0.2-0.3,0.4-0.4c0-0.1,0.1-0.1,0.1-0.2
		c0.1-0.2,0-0.4,0.1-0.5c0.1,0,0.2,0,0.3,0.1c0,0,0.1,0,0.2-0.1c0.2-0.1,0.2-0.7,0.2-0.7s0.1-0.8,0-0.8c0,0-0.2-0.1-1.2,0.6
		c-0.2,0.2-1.4,1.8-1.6,2.1s0,0.6,0.4,0.6c0.2,0,0.4-0.1,0.6-0.2c-0.2,0.3-0.5,0.9-0.6,1.4c-0.3,1.4-0.4,1.5-1,2.3
		c-0.1,0.1-0.2,0.1-0.2,0.1s-2.5-1.5-3.6-2.6s-1.8-2.2-2.5-2.4s-4.6,1-7,5.3s-2.4,7.5-2.1,8.6s0.9,1.3,1.5,1.3
		c0.7,0,2.1,0.1,3.3,0.4c1.2,0.3,1.5,0.4,1.9,0.4c0.2,0,0.5-0.2,0.7-0.4c0.3-0.2,2-2.3,2.7-2.7c0.6-0.4,0.4,0.3,0.1,0.7
		c-0.3,0.4-1.1,1.7-1.6,3c-0.2,0.4-0.9,2.1-0.9,3.9C7.8,512.2,8.3,513.7,9.3,513.7 M28.5,501.7c0.2,0,0.1,0.1,0,0.2
		c-0.1,0.1-0.3,0.3-0.3,0.5c-0.1,0.4,0.4,0.7-0.1,1.2c-1.1,1-1.8,2.2-1.2,2.4c0.6,0.1,0.8,0.1,1.4,0c1.2-0.2,2.3-0.5,2.3-0.5
		s0.4-0.1,0.2-0.7c-0.2-0.5-0.4-1.1-0.4-1.2c0-0.1,0.2-0.3,0.4-0.5c0.3-0.4,0.3-0.8,0.2-1c-0.1-0.2-0.4-0.5-0.3-0.5
		c0.3-0.6,1.3-1.9,0.3-1.5c-0.2,0.1-1.6,0.7-2.8-0.1c-0.3-0.2-0.6-0.3-0.7-0.1c0,0.1,0.1,0.7,0.2,1s0.4,0.7,0.6,0.8
		C28.2,501.8,28.3,501.8,28.5,501.7 M40.6,499.1c0,0-0.2-0.8-1-0.9c-0.8-0.1-0.5,1.2,0,1S40.6,499.1,40.6,499.1 M22.5,489.7
		c0.1,0-0.1-0.2-0.4-0.3s-0.6-0.2-0.6-0.1c0,0,0,0.1,0.3,0.3C21.9,489.8,22.3,489.8,22.5,489.7 M21.5,504.6c0-0.1-0.2-0.1-0.4-0.4
		c-0.2-0.3-0.3-0.7-0.3-0.5c0,0-0.1,0.5,0.1,0.8C21,504.7,21.5,504.7,21.5,504.6 M118.2,535.4c0.1-0.8,0.2-0.5,0.6-0.3
		c0.3,0.3,1.2,1.1,2.9,2.5c1.3,1,7,5.4,10,6.7c2,0.8,2.8,0.9,3.3,1c0.1,0,0.1,0,0.2,0c0.1,0,0,0,0,0c-0.1,0.1-0.2,0.2-0.2,0.3
		c-0.2,0.5,0,0.8,0.1,0.9c0.2,0.4,0.5,0.2,0.6-0.3s0.7-0.4,0.4-0.9c-0.1-0.2-0.2-0.3-0.4-0.3c0,0-0.1,0,0,0c0.2-0.1,0.3-0.2,0.5-0.3
		c0.4-0.1,0.9,0.1,1,0.6v0.1c1.4,0.1,2.6-0.1,4.7-0.7c1.9-0.5,3.5-1.8,3.5-1.8s1.2-2.1,1.9-2.7c1-0.8,1.9-0.2,1.9-0.2
		s0.2-0.5,0.9-0.1c0.2,0.1,0.4,0.6,0.4,1.7c0,1.1-0.1,3.3-1,5.6c-0.9,2.1-1.5,2.9-3.5,3.8c-2,0.9-4.1,1.7-4.1,1.7v1.4
		c0,0-0.9,0.6-2,1c-1.7,0.6-3.1,0-3.1,0l-0.2-0.1c0,0-0.9,0.2-2.2-0.4c0,0-0.1,0,0-0.1c0.5-0.1,0.8-0.7,0.5-1
		c-0.5-0.4-0.9-0.8-1.1-1.1c-0.4-0.6-0.6-0.5-0.8-0.3c-0.1,0.1-0.3,0.6-0.2,1.1c0,0.1,0,0-0.1,0c-0.2-0.2-0.4-0.4-0.5-0.5
		c-0.2-0.2-0.7-0.4-1.1-0.6c-0.6-0.2-1.6-0.5-2.9-0.8c-1.9-0.4-5.7-1.5-7.4-2.1c-2.2-0.8-4.5-2.2-5.5-3c-0.3-0.2,0.1-0.2,0.4-0.3
		s0.4-0.3,0.4-0.4c0.1-0.1,0.5-0.7,0.7-0.6c0.8,0.4,1.4,1.1,3.6,2.1c1.1,0.5,6.1,2.7,9.1,3c3,0.3,1.3-0.2,0.2-0.5s-4.3-1.5-6-2.2
		s-5.3-2.9-6-3.2c-0.6-0.3-0.4-0.5-0.3-0.8s0.5-1.5,0.8-2.8C118.5,538.6,118.2,535.4,118.2,535.4 M143.8,550.1
		c-0.6-0.5-1.5-0.3-2.4,0.4s-1.3,1.4-2,1.4c-0.7,0.1-1.6,0-1.1,0.5c0,0,0.1,0.2,1.1,0.2s2-1,2.7-1.3
		C142.8,551.1,144.4,550.6,143.8,550.1 M146.6,545.9c0,0-0.6,0.3-0.6,0.8s0.4,1.2,0.8,0.7c0.4-0.5,0.5-1.4,0.8-1.9
		c0.2-0.4,0.3-0.7,0.3-1c0-0.1,0-0.2-0.1-0.2c0-0.1-0.1-0.1-0.1,0c-0.1,0.2-0.1,0.5-0.3,0.8C147.2,545.5,146.8,545.7,146.6,545.9
		 M145.6,547.6c0-0.9-0.4-1.5-0.6-0.7c0,0.1-0.2,1,0.3,1.5s0.8,0.4,0.8,0.2C146,548.2,145.6,548.2,145.6,547.6 M63.8,489.2
		c-0.1-0.7-0.2-1.5-0.4-1.8c-0.4-0.6-0.5-0.9-0.7-1.3c-0.2-0.3-0.6-0.6-0.9-0.5c-0.3,0-0.4-0.1-0.5-0.5c-0.2-0.4-0.3-0.5-0.6-0.6
		s-0.6-0.2-0.6-0.2s-0.2-0.1-0.3-0.6s-0.3-1.1-0.9-1.1c-0.4,0-0.9,0.2-1,0.2l0,0c0.2,0.1,0.5,0.5,0.2,1c-0.3,0.7-0.6,1.2-0.7,1.5
		c-0.2,0.4-0.2,0.9,0.2,0.7s0.6-0.3,0.9,0c0.1,0.1,0.2,0.3,0.3,0.4c0.2,0.5,0.6,0.7,0.8,0.6c0.2-0.1,0.5-0.1,0.7,0.2
		s0.5,0.6,0.8,0.6s0.5,0.1,0.7,0.4c0.2,0.3,0.3,0.7,0.4,2c0.1,1.2-0.2,1.5-0.3,2c-0.2,0.5,0.1,0.8,0.4,0.8c0.3,0,0.4,0,0.5-0.4
		c0-0.3,0.3-0.4,0.4,0.1c0.1,0.4,0.6-0.4,0.7-0.9c0-0.1,0-0.1,0-0.2c4.2,2,52,26.2,52.4,26.3c0.1,0.1,0.3,0,0.3-0.1
		c0.1-0.1,0.1-0.3,0-0.4C116.4,517.2,63.8,489.2,63.8,489.2 M56.1,487.5c0.3,0.1-0.4-0.8-0.4-1.6c0-0.4,0.2-0.9,0.2-0.9l-0.8-0.4
		c-0.1-1.2-1-2.1-2.2-2.1s-2.2,1-2.2,2.2c0,0.5,0.2,1,0.4,1.3c0,0,0.1,0.1,0-0.1c-0.1-0.2-0.1-0.5,0-0.6l0,0
		c0.2-0.2,0.3,0.3,0.8,0.3c0.2,0,0.3,0,0.4,0.2c0.1,0.2,0,0.4-0.1,0.5s-0.3,0.2-0.4,0.2c-0.1,0-0.1,0,0,0.1c0.3,0.2,0.7,0.3,1.2,0.3
		c0.4,0,0.8-0.1,1.2-0.3C54.8,487,55.9,487.4,56.1,487.5 M136.4,465.6c0-0.1,0.3-0.8,0.7-0.7c1.6,0.3,5.1,2.8,6.2,4.8
		c1.1,2,1.5,5,2,6.5c0.1,0.2,0.4,0.9,0.4,0.9l1.5-0.3c0,0,0.6,0.6,1.3,2s0.9,2.3,0.9,2.3l-1.4,1.3c0,0-1.2,1.5-2.7,2.2
		c-0.3,0.2-0.6,0.3-0.9,0.4c-0.2,0.1-0.4,0.1-0.6,0.2c-0.9,0.3-1.3,0.3-1.6,0.4c-0.3,0.1-0.5,0.6-1,0.7c-0.2,0.1-0.4,0.1-0.7,0
		c-0.1,0-0.3-0.1-0.4-0.2c-0.8-0.3-0.8,0.3-0.9,0.5c-0.1,0.1-0.1,0.2-0.2,0.3c-0.3,0.3-0.9,0.3-1.2,0.3c-0.3,0.2-0.6,0.4-1,0.7
		c-0.2,0.1-0.4,0.3-0.6,0.5c-1.8,1.5-3.1,2.7-6.8,5.2c-3.7,2.4-6.4,3.1-6.4,3.1s-0.4-0.7-0.6-1c-0.1-0.3,0-0.6,0.5-0.9
		c0.1-0.1,0.3-0.1,0.5-0.2c0.1,0,0.1,0,0.2,0c0.6-0.1,1.8-0.5,2.9-1c1.3-0.5,2.9-1.2,3.8-1.9c1.7-1.2,4.3-3.4,5.8-4.9
		c0.8-0.8-1.7,0.9-3.9,2.3c-3.6,2.3-7,3.5-8.8,4.1c-0.1,0-0.2,0.1-0.2,0.1c-0.3,0.1-0.6,0.3-0.8,0.4c-0.1,0.1-0.2,0.2-0.3,0.3
		c-0.1,0.2-0.1,0.4-0.3,0.3c-0.1-0.1-0.4-0.7-1.1-1.7c-0.9-1.2-2.5-1.5-4.1-2.2c-0.6-0.3-1.2-0.6-1.6-0.8c-1,0.1-2.3-0.1-2-0.3
		c0.1,0,0.7-0.2,1-0.3l0,0c0,0,0.1,0,0.2,0c0.3-0.1,0.6-0.2,0.6-0.2l0,0c1.7-0.4,6.1-1.6,10.9-3.4c4.5-1.7,8.2-3.4,9.7-4.3
		c0.3-0.2,0.6-0.5,0.9-0.7c0-0.3,0.1-0.7,0.2-0.9c0.2-0.3,0.5-0.3,0.7-0.3c0.3-0.5,0.5-1,0.6-1.5c0.6-2.6,1-4.7,0.5-6.5
		c-0.1-0.2-0.1-0.4-0.2-0.6c0-0.1,0-0.1,0,0c0.1,0.2,0.3,0.3,0.4,0.5c1.2,1.3,1,2.8,1,3.1c0,0.1,0,0,0.1,0c0.8-0.9,0.2-2.9-0.3-3.5
		s-0.4-0.4-0.1-1.1c0.1-0.2,0.1-0.3,0-0.4c-0.1-0.2-0.9-0.2-1.6-0.4c-0.6-0.1-1-0.4-1.2-0.6c-0.6-1.2,0.1-2.1,0.1-2.1
		S136.4,465.9,136.4,465.6 M144.3,483.5c-0.1-0.2-0.3,0.2-1.6,0.2c0,0-0.8-0.2-1,0.3c-0.3,0.4,0.1,1.2,0.5,1.1
		c0.4-0.1,1-0.2,1.3-0.3C144.4,484.4,144.4,483.7,144.3,483.5 M144.1,476.5c-0.2-0.5-0.5-0.5-0.5-0.4c0.1,0.3,0.4,1,0.4,1.8
		c0,0.9,0.1,2.4,0.5,2.8c0.4,0.4,1.7,0.9,1.1-0.2c-0.6-1-0.7-1-1-2.1C144.5,478,144.3,477,144.1,476.5 M119.3,494.8
		c-1.1-1.6-3-2.1-4.4-2.6c-2.2-0.8-3.2-1.7-3.6-1.9c-0.2-0.2-1.2,0.2-1.6,0.4c-0.1,0-0.1,0.1-0.2,0.1v0.3c0,0.1,0,0.3-0.1,0.4
		c-0.6-0.2-1.1-0.3-1.6-0.3c-0.5-0.1-1.7,0-2.8,0.3c-0.7,0.2-0.9,0.4-1,0.6c-0.1,0.2,0.3,0,1.1-0.1c0.8,0,1.9,0.1,2.7,0.5
		c0.9,0.5,1.8,1,2.3,1.2s1,0.1,1.1-0.3l0,0c0-0.1,0-0.3,0.4-0.3c0.5-0.1,1.5,0,3.5,1.8c0.6,0.5,1.4,1.4,2.1,2.4c0.2,0,0.5-0.1,0.9,0
		c0.5,0,1.1,0.3,1.2,0.4c0.1,0.1,0.1,0.2,0.2,0.3c0.5,0.9,1.7,0,1.7,0S120.7,497,119.3,494.8 M94,515.9c-3.4-2-6-3.6-7.6-5.2
		c-0.9-0.9-2-2-2.3-2.5c-0.5-0.8-0.5,0.3,1.2,2.8c0.6,0.9,1.4,1.8,3,3c3.1,2.3,7.6,4.4,9.3,5.3c1.5,0.7,3.4,1.8,4.6,3.2
		c1.3,1.5,1.8,3.1,2.6,4c0.1,0.1,0.2,0.2,0.3,0.3c0.1,0.1,0.2,0.2,0.3,0.3c0.1,0.1,0.5,0.2,0.8,0.2c0.4-0.1,0.9-0.1,1.3,0.3
		c0.2,0.2,0.5,0.7,0.9,1.8c0,0.1,0,0.2,0.1,0.2c0,0.2,0.2,0.7,0.2,0.8c0.1,0.7,0.4,1.1,0.7,0.5c0.1-0.2,0.2-0.3,0.3-0.7
		c0.1-0.5,0.2-0.7,0.5-0.7s0.9,0.4,1.3,1.8c0.7,2.2,0.6,5.3,0.6,5.3c-0.1,1.5-0.1,2.3,0,2.5s0.4,0.2,0.7-0.8
		c0.1-0.5,0.4-1.8,0.6-2.4c0.1-0.4,0.4-0.3,0.5,0.2c0.1,0.7,0.1,2.9-0.3,4.1c0,0-0.2,0.5-0.3,0.7c-0.4,0.7-0.9,1.2-1.2,1.4
		c-0.2,0.1-0.7,0.2-0.8,0.4l1.4,1c0,0,0.4,0.1,1.4-0.6c-0.1-0.1-0.4-0.1-0.5-0.2c-0.2-0.1-0.4-0.4-0.1-0.7c0.2-0.2,0.7-0.1,0.9,0
		c0.1,0.1,0.2,0.1,0.4,0.1h0.1c0.4-0.5,0.8-1.3,1-2.4c0.5-3,0-4.9-0.1-5.4c0-0.2-0.2-0.9,0-0.9s0.5,0.1,0.7,0.2
		c0.4,0.2,0.5,0.2,0.7,0.3c0.3,0.1,0.2-0.1,0.2-0.1c-0.2-0.3-0.3-0.5-0.6-0.7c-0.2-0.3-1-1.1-1.2-1.3c-0.7-0.7-1-1.1-1.3-1
		c-0.1,0-0.4,0.1-0.6,0.1c-0.5,0-0.9-0.2-1.5-1s-0.7-1.5-1.5-2.2c-0.7-0.7-1.6-0.2-2.3-0.8c-0.7-0.6-1-1.7-1.5-2
		c-0.8-0.6-1-0.5-1.9-1.1c-0.7-0.4-2.6-2.3-3.7-3.4C99.1,518.4,97.1,517.7,94,515.9 M58.7,492.7c0.1,0.4,0.4,0.8,0.6,0.6
		c0.2-0.1,0.2-0.6-0.2-1.4c-0.4-0.8-0.7-1.2-0.7-0.8C58.4,491.2,58.5,492.3,58.7,492.7 M79.4,532c0.4,2.2,0.5,2.9,0.6,3.3
		c3.3,3.7,6.4,1.7,7.1,0.6c0.5-0.8-0.3,0.1-4.7-3.5c-1.5-1.2-3.3-4-3.7-4.5C78.7,528.3,79.1,530.1,79.4,532 M56,484.8
		c0.1-0.2,0.8-1.5,1-1.8c0.1-0.1,0.2-0.3,0.3-0.4c-0.1-0.4-0.3-0.6-0.7-0.7c-0.3-0.1-0.6,0.3-0.7,0.9c-0.1,0.7-0.2,1-0.3,1.4
		c0,0.3,0.1,0.5,0.2,0.7C56,484.9,56,484.8,56,484.8"/>
</g>
</svg>
